<?xml version="1.0" encoding="UTF-8" standalone="no"?>
<svg
   xmlns:dc="http://purl.org/dc/elements/1.1/"
   xmlns:cc="http://creativecommons.org/ns#"
   xmlns:rdf="http://www.w3.org/1999/02/22-rdf-syntax-ns#"
   xmlns:svg="http://www.w3.org/2000/svg"
   xmlns="http://www.w3.org/2000/svg"
   xmlns:sodipodi="http://sodipodi.sourceforge.net/DTD/sodipodi-0.dtd"
   xmlns:inkscape="http://www.inkscape.org/namespaces/inkscape"
   version="1.1"
   id="svg1518"
   xml:space="preserve"
   width="2666.6667"
   height="2666.6667"
   viewBox="0 0 2666.6667 2666.6667"
   sodipodi:docname="logo 02-double-square-color2.svg"
   inkscape:version="1.0.2 (e86c870879, 2021-01-15)"><metadata
     id="metadata1524"><rdf:RDF><cc:Work
         rdf:about=""><dc:format>image/svg+xml</dc:format><dc:type
           rdf:resource="http://purl.org/dc/dcmitype/StillImage" /><dc:title /></cc:Work></rdf:RDF></metadata><defs
     id="defs1522"><clipPath
       clipPathUnits="userSpaceOnUse"
       id="clipPath1536"><path
         d="M 0,2000 H 2000 V 0 H 0 Z"
         id="path1534" /></clipPath><clipPath
       clipPathUnits="userSpaceOnUse"
       id="clipPath1684"><path
         d="m 1072.2,939.182 h 26.75 v -20.933 h -26.75 z"
         id="path1682" /></clipPath><clipPath
       clipPathUnits="userSpaceOnUse"
       id="clipPath1700"><path
         d="m 1075.25,1051.34 h 36.19 V 944.231 h -36.19 z"
         id="path1698" /></clipPath><clipPath
       clipPathUnits="userSpaceOnUse"
       id="clipPath1716"><path
         d="m 1087.81,1141.44 h 32.51 v -85.63 h -32.51 z"
         id="path1714" /></clipPath><clipPath
       clipPathUnits="userSpaceOnUse"
       id="clipPath1732"><path
         d="m 1109.6,1271.42 h 26.69 v -16.26 h -26.69 z"
         id="path1730" /></clipPath></defs><sodipodi:namedview
     pagecolor="#ffffff"
     bordercolor="#666666"
     borderopacity="1"
     objecttolerance="10"
     gridtolerance="10"
     guidetolerance="10"
     inkscape:pageopacity="0"
     inkscape:pageshadow="2"
     inkscape:window-width="2560"
     inkscape:window-height="1581"
     id="namedview1520"
     showgrid="false"
     inkscape:snap-nodes="true"
     inkscape:zoom="0.40995335"
     inkscape:cx="1285.773"
     inkscape:cy="1342.3271"
     inkscape:window-x="0"
     inkscape:window-y="19"
     inkscape:window-maximized="0"
     inkscape:current-layer="g1526"
     showguides="false"
     inkscape:guide-bbox="true"
     inkscape:document-rotation="0"><sodipodi:guide
       position="1331.0001,1432.7782"
       orientation="1,0"
       id="guide1056" /><sodipodi:guide
       position="1793.4342,1335.2859"
       orientation="0,-1"
       id="guide1058" /><sodipodi:guide
       position="1210.8425,1086.7069"
       orientation="0,-1"
       id="guide5131" /></sodipodi:namedview><g
     id="g1526"
     inkscape:groupmode="layer"
     inkscape:label="logo 02"
     transform="matrix(1.3333333,0,0,-1.3333333,0,2666.6667)"
     style="display:inline"><path
       d="M 0,0 H 2000 V 2000 H 0 Z"
       style="display:none;fill:#ffc5c5;fill-opacity:1;fill-rule:nonzero;stroke:none"
       id="path1528"
       inkscape:label="bg"
       sodipodi:insensitive="true" /><circle
       style="display:none;fill:#000000;fill-opacity:1;stroke:#000000;stroke-width:0.75;stroke-opacity:1"
       id="path1064"
       cx="998.25012"
       cy="-1001.4644"
       transform="scale(1,-1)"
       r="802.76764"
       sodipodi:insensitive="true"
       inkscape:label="circle" /><g
       id="g5317"
       style="display:inline"
       transform="matrix(-1,0,0,1,2323.9782,-75.705968)"
       inkscape:label="right hand"><g
         id="g5315"
         clip-path="url(#clipPath1536)"><g
           id="g5135"
           transform="translate(544.7607,676.2939)"
           style="display:none"><path
             d="m 0,0 c 3.66,3.035 5.49,7.344 5.49,12.932 0,5.681 -1.83,10.04 -5.49,13.075 -3.662,3.032 -9.008,4.551 -16.036,4.551 H -35.108 V -4.551 h 19.072 C -9.008,-4.551 -3.662,-3.034 0,0 m 8.596,45.148 c 6.597,-2.986 11.679,-7.223 15.243,-12.712 3.562,-5.491 5.346,-11.993 5.346,-19.504 0,-7.418 -1.784,-13.895 -5.346,-19.432 -3.564,-5.54 -8.646,-9.777 -15.243,-12.714 -6.598,-2.94 -14.375,-4.407 -23.331,-4.407 H -35.108 V -51.505 H -58.511 V 49.628 h 43.776 c 8.956,0 16.733,-1.494 23.331,-4.48"
             style="fill:#380000;fill-opacity:1;fill-rule:nonzero;stroke:none"
             id="path5133" /></g><g
           id="g5139"
           transform="translate(644.7388,664.2295)"
           style="display:none"><path
             d="M 0,0 -16.038,38.721 -32.073,0 Z m 7.368,-17.77 h -46.955 l -8.957,-21.67 H -72.527 L -27.451,61.692 H -4.335 L 40.886,-39.44 h -24.56 z"
             style="fill:#380000;fill-opacity:1;fill-rule:nonzero;stroke:none"
             id="path5137" /></g><g
           id="g5143"
           transform="translate(754.6816,702.3008)"
           style="display:none"><path
             d="m 0,0 c -3.662,3.032 -9.008,4.551 -16.036,4.551 h -19.072 v -35.252 h 19.072 c 7.028,0 12.374,1.538 16.036,4.623 3.66,3.08 5.49,7.415 5.49,13.003 C 5.49,-7.394 3.66,-3.035 0,0 m 5.923,-77.512 -19.504,28.172 h -1.154 -20.373 V -77.512 H -58.511 V 23.621 h 43.776 c 8.956,0 16.733,-1.494 23.331,-4.479 6.596,-2.987 11.679,-7.224 15.243,-12.713 3.562,-5.491 5.346,-11.992 5.346,-19.504 0,-7.514 -1.806,-13.992 -5.418,-19.432 -3.612,-5.444 -8.742,-9.609 -15.387,-12.498 l 22.682,-32.507 z"
             style="fill:#380000;fill-opacity:1;fill-rule:nonzero;stroke:none"
             id="path5141" /></g><g
           id="g5147"
           transform="translate(821.8608,706.8516)"
           style="display:none"><path
             d="m 0,0 h -32.363 v 19.07 h 88.13 V 0 H 23.405 V -82.063 H 0 Z"
             style="fill:#380000;fill-opacity:1;fill-rule:nonzero;stroke:none"
             id="path5145" /></g><g
           id="g5151"
           transform="translate(936.8657,660.6182)"
           style="display:none"><path
             d="M 0,0 V -35.829 H -23.405 V 0.289 l -39.152,65.015 h 24.85 l 27.016,-44.933 27.017,44.933 h 22.971 z"
             style="fill:#380000;fill-opacity:1;fill-rule:nonzero;stroke:none"
             id="path5149" /></g><g
           id="g5155"
           transform="translate(1051.002,672.6826)"
           style="display:none"><path
             d="m 0,0 c 5.296,4.381 7.945,10.569 7.945,18.564 0,8.187 -2.649,14.47 -7.945,18.855 -5.3,4.381 -12.957,6.574 -22.972,6.574 H -49.846 V -6.573 h 26.874 C -12.957,-6.573 -5.3,-4.384 0,0 m 7.657,43.993 c 7.318,-6.167 10.98,-14.642 10.98,-25.429 0,-10.788 -3.662,-19.24 -10.98,-25.355 -7.321,-6.116 -17.434,-9.173 -30.342,-9.173 h -27.161 v -31.93 H -60.537 V 53.239 h 37.852 c 12.908,0 23.021,-3.085 30.342,-9.246"
             style="fill:#380000;fill-opacity:1;fill-rule:nonzero;stroke:none"
             id="path5153" /></g><g
           id="g5159"
           transform="translate(1103.5898,635.1914)"
           style="display:none"><path
             d="M 0,0 C -7.321,7.513 -10.979,18.442 -10.979,32.796 V 90.73 H -0.29 V 33.229 c 0,-11.751 2.649,-20.516 7.947,-26.295 5.296,-5.778 12.953,-8.668 22.972,-8.668 10.112,0 17.818,2.89 23.116,8.668 5.296,5.779 7.946,14.544 7.946,26.295 V 90.73 H 72.094 V 32.796 C 72.094,18.442 68.456,7.513 61.185,0 53.913,-7.514 43.727,-11.27 30.629,-11.27 17.528,-11.27 7.317,-7.514 0,0"
             style="fill:#380000;fill-opacity:1;fill-rule:nonzero;stroke:none"
             id="path5157" /></g><g
           id="g5163"
           transform="translate(1292.4189,725.9219)"
           style="display:none"><path
             d="m 0,0 v -101.133 h -8.814 l -65.014,82.063 v -82.063 H -84.52 V 0 h 8.814 l 65.158,-82.063 V 0 Z"
             style="fill:#380000;fill-opacity:1;fill-rule:nonzero;stroke:none"
             id="path5161" /></g><g
           id="g5167"
           transform="translate(1342.1885,630.5684)"
           style="display:none"><path
             d="m 0,0 c -8.043,4.429 -14.354,10.568 -18.927,18.421 -4.577,7.849 -6.862,16.637 -6.862,26.366 0,9.727 2.285,18.515 6.862,26.366 4.573,7.849 10.907,13.99 18.998,18.421 8.091,4.429 17.143,6.647 27.161,6.647 7.514,0 14.448,-1.253 20.805,-3.756 6.357,-2.508 11.75,-6.165 16.182,-10.982 l -6.791,-6.791 c -7.899,7.996 -17.867,11.994 -29.906,11.994 -7.997,0 -15.266,-1.832 -21.817,-5.491 -6.551,-3.662 -11.679,-8.67 -15.387,-15.026 -3.708,-6.357 -5.561,-13.485 -5.561,-21.382 0,-7.899 1.853,-15.025 5.561,-21.382 3.708,-6.356 8.836,-11.367 15.387,-15.027 6.551,-3.661 13.82,-5.489 21.817,-5.489 12.136,0 22.105,4.045 29.906,12.135 l 6.791,-6.79 C 59.787,3.418 54.369,-0.268 47.965,-2.816 41.559,-5.37 34.601,-6.646 27.089,-6.646 17.07,-6.646 8.04,-4.431 0,0"
             style="fill:#380000;fill-opacity:1;fill-rule:nonzero;stroke:none"
             id="path5165" /></g><g
           id="g5171"
           transform="translate(1513.751,725.9219)"
           style="display:none"><path
             d="m 0,0 v -101.133 h -10.549 v 46.665 h -63.279 v -46.665 H -84.521 V 0 h 10.693 v -45.077 h 63.279 V 0 Z"
             style="fill:#380000;fill-opacity:1;fill-rule:nonzero;stroke:none"
             id="path5169" /></g><g
           id="g5175"
           transform="translate(1295.0693,1230.6104)"
           style="display:inline"><path
             d="m 0,0 -5.418,-16.83 c -17.36,3.989 -76.909,17.43 -130.926,27.343 -0.552,0.691 -1.129,1.383 -1.752,2.052 -5.601,6.063 -12.956,10.074 -21.97,11.988 -3.781,0.807 -7.862,1.245 -12.219,1.314 -4.426,0.046 -8.829,0.3 -13.187,0.715 -8.76,0.76 -17.406,2.075 -25.867,3.366 -4.564,0.691 -8.991,1.36 -13.256,1.913 l -6.202,0.668 0.762,11.458 c 0.092,1.476 0.783,2.813 1.936,3.689 0.599,0.484 1.89,1.222 3.596,0.899 l 40.622,-7.769 25.106,-4.795 L -3.458,6.317 C -1.753,5.971 -0.83,4.818 -0.438,4.15 0.299,2.905 0.461,1.406 0,0"
             style="fill:#ffffff;fill-opacity:1;fill-rule:nonzero;stroke:none"
             id="path5173" /></g><g
           id="g5201"
           inkscape:label="breaks"
           style="display:inline;fill:#feff00;fill-opacity:1"><path
             d="m 693.5903,1067.5664 -59.373,9.604 24.448,-23.928 z"
             style="fill:#feff00;fill-opacity:1;fill-rule:nonzero;stroke:none"
             id="path5177" /><path
             d="m 755.1523,783.7871 8.796,36.709 -42.502,-42.555 z"
             style="fill:#feff00;fill-opacity:1;fill-rule:nonzero;stroke:none"
             id="path5179" /><path
             d="m 645.6045,1237.6123 2.539,-34.115 35.679,-12.325 z"
             style="fill:#feff00;fill-opacity:1;fill-rule:nonzero;stroke:none"
             id="path5181" /><path
             d="m 827.3184,1376.0781 -23.004,-25.319 15.612,-34.369 z"
             style="fill:#feff00;fill-opacity:1;fill-rule:nonzero;stroke:none"
             id="path5183" /><path
             d="m 987.3091,1319.2017 -8.821,-36.703 42.53,42.526 z"
             style="fill:#feff00;fill-opacity:1;fill-rule:nonzero;stroke:none"
             id="path5185" /><path
             d="m 736.6904,1341.8242 -7.739,-15.253 12.078,-14.504 z"
             style="fill:#feff00;fill-opacity:1;fill-rule:nonzero;stroke:none"
             id="path5187" /><path
             d="m 617.7476,1146.0547 6.894,-15.654 18.873,0.151 z"
             style="fill:#feff00;fill-opacity:1;fill-rule:nonzero;stroke:none"
             id="path5189" /><path
             d="m 655.0137,963.0859 16.218,-5.436 12.591,14.061 z"
             style="fill:#feff00;fill-opacity:1;fill-rule:nonzero;stroke:none"
             id="path5191" /><path
             d="m 695.4038,857.7295 12.591,14.062 -28.809,-8.626 z"
             style="fill:#feff00;fill-opacity:1;fill-rule:nonzero;stroke:none"
             id="path5193" /><path
             d="m 837.9961,747.1396 10.937,13.151 -8.55,16.827 z"
             style="fill:#feff00;fill-opacity:1;fill-rule:nonzero;stroke:none"
             id="path5195" /><path
             d="m 994.6377,757.9795 1.741,34.165 -33.862,16.684 z"
             style="fill:#feff00;fill-opacity:1;fill-rule:nonzero;stroke:none"
             id="path5197" /><path
             d="m 1021.7012,873.7988 28.71,-8.946 -10.411,13.57 z"
             style="fill:#feff00;fill-opacity:1;fill-rule:nonzero;stroke:none"
             id="path5199" /></g><g
           id="g5205"
           transform="translate(1303.3369,1264.1392)"
           style="display:inline;opacity:1;fill:#818181;fill-opacity:1"
           inkscape:label="bg"><path
             d="m -273.42423,-320.79137 c -4.162,0.008 -4.90077,-3.74063 -8.84377,-3.52163 -34.795,1.894 -60.943,11.8 -74.936,28.74 -9.105,11.018 -12.351,24.358 -9.133,37.567 0,0 -14.991,-20.423 1.941,-43.508 0.481,-0.657 1.054,-1.251 1.604,-1.857 -70.738,-13.479 -137.25,-24.338 -157.195,-27.538 l -14.645,11.988 1.884,39.935 -21.008,35.747 -1.073,25.457 1.26,1.045 15.812,60.234 -2.986,-0.868 -6.604,38.098 h 170.236 c -4.244,-14.832 4.179,-41.325 4.179,-41.325 0,1.036 0.009,2.202 0.037,3.442 0.308,15.159 2.892,44.768 17.585,59.46 60.52313,112.864263 53.51661,-158.31585 81.88577,-223.09537 z M -316.69,-40.793 l 2.965,13.489 18.288,2.778 7.908,14.68 0.494,16.267 -6.92,-14.68 -7.413,-8.332 -28.173,-1.587 -11.861,18.251 v 11.506 l -7.909,11.108 15.816,7.936 0.495,12.696 5.931,9.125 -12.851,-7.141 0.989,-8.332 -23.23,-15.87 14.828,-15.474 -7.908,-17.457 h -21.747 l -10.379,19.441 4.448,9.125 -4.448,9.522 4.942,11.507 -11.367,18.647 2.471,-17.06 -8.403,-9.522 5.932,-7.539 -0.989,-16.267 -4.943,-8.332 -27.677,8.332 9.39,17.854 -6.425,11.903 4.449,20.631 -14.334,-17.06 3.954,-5.555 V 11.182 l -9.884,-12.3 -19.276,6.745 4.942,20.235 -16.804,-15.474 16.804,-13.49 -16.804,-10.712 -22.736,20.631 -15.815,6.349 v 23.805 l -10.874,9.126 11.862,28.169 -25.207,-32.931 15.816,-8.729 -4.448,-19.043 23.23,-17.855 -31.138,-31.344 -34.103,6.745 6.426,26.98 9.39,7.141 -41.516,17.061 25.7,-14.283 -11.862,-26.583 4.449,-18.251 30.643,-6.745 -9.391,-25.392 -35.585,-1.984 -15.322,10.713 -6.425,27.376 -20.759,7.935 13.345,-13.093 1.483,-26.186 21.252,-11.506 29.655,-4.761 3.954,-19.441 -10.379,-11.109 -33.115,3.571 -26.195,-9.523 h 34.103 l 35.586,-3.967 5.437,-31.344 -34.597,-14.283 -50.908,17.457 48.931,-35.311 35.585,10.315 -9.391,-35.772 -33.114,-27.312 -21.252,11.903 -15.816,-7.935 18.781,0.397 11.368,-25.79 -18.782,-20.631 30.644,16.664 -2.472,14.68 28.666,13.886 0.989,-23.408 -11.862,-19.838 19.77,16.267 12.356,-21.028 -1.483,-31.344 -34.103,-11.903 -31.632,5.158 29.655,-10.315 -10.873,-30.948 23.23,13.093 0.494,19.838 23.229,3.571 25.701,-21.028 -19.275,-26.186 5.436,-14.284 -39.539,-22.217 -1.977,-30.551 11.861,27.773 48.931,15.076 -8.896,25.79 8.896,9.125 34.103,-22.218 -2.471,-32.534 -8.897,-18.647 -32.62,-4.365 16.804,-2.38 -9.39,-15.87 21.746,-19.838 -11.367,20.234 13.344,16.663 13.345,-5.157 0.494,15.474 15.816,32.93 33.609,-5.158 4.448,-24.598 -15.816,-39.676 13.345,-10.712 -3.954,15.076 20.758,46.421 0.495,17.457 23.723,-4.761 1.483,-14.679 -9.391,-15.078 19.276,-20.631 -10.379,23.409 10.379,14.283 -1.977,14.68 15.322,7.141 19.77,-16.266 -2.472,-18.251 24.218,-14.68 -14.333,16.267 4.943,21.028 -16.31,11.506 c 30.579,6.083 56.785,25.631 71.332,53.209 l -0.89131,7.78624 c 0.9,-0.009 6.45531,-0.67024 7.36731,-0.67024"
             style="display:inline;fill:#818181;fill-opacity:1;fill-rule:nonzero;stroke:none"
             id="path5203"
             sodipodi:nodetypes="cccccccccccccccccccccccccccccccccccccccccccccccccccccccccccccccccccccccccccccccccccccccccccccccccccccccccccccccccccccccccccccccccccccccccccccccccccccccccccccccccccccccc" /></g><path
           style="display:inline;opacity:1;fill:#000000;fill-opacity:1;stroke:none;stroke-width:0.75px;stroke-linecap:butt;stroke-linejoin:miter;stroke-opacity:1"
           d="m 783.3501,933.2302 c 53.22477,10.73676 106.32882,20.93659 157.195,27.538 -19.16319,19.85185 -9.16387,36.48919 -3.20999,47.2001 -2.76391,-18.43675 2.13076,-32.50032 14.36696,-45.31133 21.06522,-15.36166 44.82967,-22.80148 89.12783,-23.05677 l -0.503,-9.342 -9.225,-0.075 -5.6023,-10.82483 c -37.52805,8.62166 -67.87531,13.6467 -77.003,29.37818 L 794.16509,919.09838 Z"
           id="path5207"
           sodipodi:nodetypes="ccccccccccc"
           inkscape:label="shadow" /><g
           id="g5233"
           inkscape:label="hand outline"
           style="display:inline;opacity:1;fill:#380000;fill-opacity:1"
           transform="translate(796.95451,-391.1084)"><path
             id="path5209"
             style="display:inline;opacity:1;fill:#380000;fill-opacity:1;fill-rule:nonzero;stroke:none;stroke-width:1.33333"
             d="m 994.12109,1047.0605 c -4.404,0.1134 -8.72101,1.6278 -12.29101,4.3868 -4.89067,3.78 -7.92918,9.5119 -8.33985,15.7265 l -1.00976,15.2989 c -13.08933,-0.081 -24.20296,2.1689 -32.4043,9.1289 -11.86,10.0573 -48.38086,44.664 -48.38086,44.664 l 65.31195,361.8658 -1.60101,29.1323 c 0,0 7.39733,18.0715 17,19.9101 l 160.71875,30.7305 c 1.3,0.248 2.5956,0.3691 3.877,0.3691 8.988,0 17.2615,-5.8926 20.1562,-14.8632 l 3.3438,-10.3672 0.748,-0.027 c 13.4573,-0.536 31.891,-1.2689 47.5137,-5.0996 30.5346,-7.488 50.7095,-21.1331 59.9629,-40.5371 9.4533,-19.8507 4.9121,-40.1625 0.8828,-51.3945 12.0266,-7.2867 20.0507,-20.2964 23.4961,-34.1524 4.2293,-17.028 1.741,-36.1941 -9.291,-48.2461 16.256,-5.1506 24.9997,-18.8692 27.873,-32.6132 4.104,-19.628 -2.3268,-43.6585 -18.8828,-57.7012 3.9067,-1.7787 7.4765,-4.303 10.4512,-7.5137 5.808,-6.2547 8.7435,-14.0406 8.7675,-23.1699 0,-4.0053 0.4245,-7.9251 0.8711,-12.0664 1.1947,-11.1827 2.5507,-23.8546 -5.9707,-36.5039 -4.3093,-6.4107 -9.3465,-11.5477 -15.9492,-16.0957 l 18.2422,-56.5508 c 1.9093,-5.928 1.1995,-12.376 -1.9512,-17.6934 -3.068,-5.1746 -8.1831,-8.7843 -14.0351,-9.9043 l -10.7149,-2.0488 -143.4199,-27.4258 -140.5664,-26.8789 c -1.46334,-0.279 -2.94021,-0.3971 -4.40821,-0.3594 z m 0.80469,14.8829 c 0.41527,0.013 0.84484,0.06 1.28711,0.1367 l 294.22261,56.3027 c 2.1098,0.3728 5.8955,2.7005 4.627,8.4121 l -7.2246,22.4395 c -75.6487,-17.1099 -130.0522,-28.1891 -174.5547,-36.459 -7.3053,-8.938 -16.7613,-15.38 -31.6426,-18.7188 -5.7167,-0.9793 -11.36,-2.0654 -18.0429,-1.6601 l -15.8301,-1.0449 c -6.0533,-0.5118 -11.5553,-1.1806 -17.086,-1.8418 -13.9158,-2.212 -28.5416,-4.1819 -43.35543,-6.0879 l 1.08985,-16.5821 c 1.37005,-3.5035 3.60288,-4.9908 6.50976,-4.8964 z"
             transform="matrix(0.75000002,0,0,-0.75000002,-473.18186,2466.8144)"
             sodipodi:nodetypes="csccccccccscccccccccccccccccccccccccccccccccccc" /><path
             style="display:inline;opacity:1;fill:#380000;fill-opacity:1;fill-rule:nonzero;stroke:none;stroke-width:0.999998"
             d="m 243.95642,1331.9346 -0.081,-1.226 c -2.56601,-0.07 -5.097,-0.104 -7.58801,-0.1 -4.16199,0.01 -8.22999,0.107 -12.17299,0.326 -34.795,1.894 -60.943,11.8 -74.93601,28.74 -9.105,11.018 -12.351,24.358 -9.13299,37.567 0,0 -14.991,-20.423 1.941,-43.508 0.48099,-0.657 1.05399,-1.251 1.604,-1.857 -70.738005,-13.479 -137.2500045,-24.338 -157.195005,-27.538 l -14.645,11.988 1.884,39.935 -21.008,35.747 -1.073003,25.457 1.26,1.045 15.812003,60.234 -2.986005,-0.868 -6.603998,38.098 H 129.27139 c -4.244,-14.832 4.179,-41.325 4.179,-41.325 0,1.036 0.009,2.202 0.037,3.442 0.30801,15.159 2.892,44.768 17.58501,59.46 16.93999,16.941 30.942,30.812 42.678,42.277 5.754,5.618 10.94599,10.634 15.68899,15.163 12.07101,11.527 21.138,19.791 28.471,26.013 8.62001,7.314 26.624,4.59 47.46401,1.427 12.38899,-1.875 26.428,-4.002 40.327,-4.179 12.072,-0.158 21.30699,-3.619 27.47299,-10.289 9.46901,-10.271 9.254,-25.421 8.955,-29.814 -0.279,-4.198 -0.074,-11.278 0.17801,-20.243 0.29799,-10.821 0.67999,-24.282 0.177,-35.392 -0.747,-16.67 -3.13401,-19.674 -3.51701,-20.047 -7.389,-4.338 -38.704,-4.804 -53.48099,18.031 -15.243,23.555 -22.44401,49.992 -17.92901,65.785 l -8.96499,2.566 c -0.49401,-1.717 -0.877,-3.517 -1.147,-5.402 -1.296,-8.899 -0.19601,-19.543 3.003,-30.84 -0.035,0.016 -0.033,-0.096 -0.003,-0.301 -5.63801,-4.825 -13.88601,-7.13 -21.62601,-8.176 -2.427,-0.328 -4.8,-0.534 -7.029,-0.653 -7.829,-0.418 -13.845,0.211 -13.845,0.211 v -9.849 c 3.862,-0.81 7.723,-1.128 11.491,-1.088 l -5.73799,-86.977 c -0.34701,-5.276 3.117,-10.007 8.12799,-11.253 0.071,-0.025 0.141,-0.05 0.211,-0.075 z"
             id="path5211" /><path
             style="display:inline;opacity:1;fill:#380000;fill-opacity:1;fill-rule:nonzero;stroke:none;stroke-width:0.999998"
             d="m 333.18142,1442.7336 c -13.44801,3.053 -42.396,10.101 -72.053,20.347 -1.386,0.478 -2.771,0.963 -4.158,1.456 -0.672,0.313 -1.379,0.566 -2.123,0.736 l 0.48699,7.39 5.35701,81.211 c 10.074,1.847 18.535,5.537 23.117,7.83 0.226,-0.4 0.435,-0.664 0.615,-0.728 3.367,-8.508 7.808,-17.165 13.228,-25.542 13.927,-21.52 40.02799,-26.437 56.04499,-24.095 -0.075,-0.177 -0.159,-0.345 -0.22299,-0.523 -2.986,-7.929 -3.145,-18.116 2.49999,-27.416 -5.448,-0.402 -10.79299,-3.153 -15.11199,-8.023 -6.01701,-6.794 -10.278,-18.344 -7.68,-32.643"
             id="path5213" /><path
             style="display:inline;opacity:1;fill:#380000;fill-opacity:1;fill-rule:nonzero;stroke:none;stroke-width:0.999998"
             d="m 384.06842,1297.6806 c -0.754,-2.337 -3.04,-3.771 -5.311,-3.337 l -120.53701,23.05 c -2.27599,0.435 -3.86899,2.611 -3.708,5.062 l 0.891,13.503 c 20.59501,-5.516 70.855,-18.848 131.60801,-29.153 z"
             id="path5215" /><path
             style="display:inline;opacity:1;fill:#380000;fill-opacity:1;fill-rule:nonzero;stroke:none;stroke-width:0.999998"
             d="m 390.47342,1317.5386 c -62.33101,10.484 -113.854,24.286 -133.55801,29.565 -0.26299,0.07 -0.51199,0.137 -0.76299,0.204 l 6.818,103.362 c 34.103,-11.383 66.11399,-18.51 73.96799,-20.192 1.28501,-2.993 2.865,-6.065 4.79001,-9.206 2.41599,-3.927 5.559,-7.659 9.477,-11.213 -5.09301,-1.679 -9.86901,-4.972 -13.348,-9.571 -6.894,-9.142 -6.447,-20.56 1.174,-29.795 9.45999,-11.465 20.235,-22.221 40.869,-28.975 l 9.003,-2.528 c 2.539,-0.605 5.214,-1.153 8.021,-1.65 z"
             id="path5217" /><path
             style="display:inline;opacity:1;fill:#380000;fill-opacity:1;fill-rule:nonzero;stroke:none;stroke-width:0.999998"
             d="m 469.93941,1340.2906 c -5.672,-11.903 -18.713,-20.439 -38.77,-25.355 -9.834,-2.409 -21.238,-3.042 -30.925,-3.446 l 7.891,24.462 c 8.285,-0.911 17.604,-1.408 28.175,-1.408 h 1.986 l -0.056,9.329 h -1.92099 c -58.191,0 -75.841,15.495 -90.095,32.762 -6.67001,8.078 -3.44201,14.888 -0.923,18.228 4.496,5.961 12.38799,8.713 17.976,6.278 9.552,-5.849 21.753,-11.194 36.913,-16.166 15.159,-4.963 33.284,-9.553 54.665,-13.891 2.677,-0.541 5.233,-0.793 7.686,-0.793 2.76199,0 5.383,0.327 7.846,0.943 2.341,-6.801 5.111,-19.273 -0.448,-30.943"
             id="path5219" /><path
             style="display:inline;opacity:1;fill:#380000;fill-opacity:1;fill-rule:nonzero;stroke:none;stroke-width:0.999998"
             d="m 487.58841,1402.6986 c -3.134,-12.621 -13.106,-26.082 -30.877,-22.473 -61.466,12.491 -95.477,27.081 -107.026,45.925 -11.297,18.424 -9.068,34.889 -1.847,43.032 2.855,3.228 6.222,4.926 9.524,4.926 1.372,0 2.734,-0.29 4.04,-0.886 18.46,-8.452 81.783,-34.171 111.559,-37.828 0.737,-0.093 1.465,-0.168 2.174,-0.224 12.472,-4.029 15.727,-19.3 12.453,-32.472"
             id="path5221" /><path
             style="display:inline;opacity:1;fill:#380000;fill-opacity:1;fill-rule:nonzero;stroke:none;stroke-width:0.999998"
             d="m 501.45041,1462.9976 c -1.334,-6.362 -6.67,-20.905 -27.35,-18.349 -23.471,2.892 -69.191,20.28 -94.993,31.064 -11.987,5.644 -18.47,14.114 -18.47,23.601 0,2.678 0.513,5.43 1.567,8.219 4.785,12.696 20.578,22.705 38.75,17.463 13.023,-3.75 24.45,-7.118 34.526,-10.094 22.211,-6.549 36.977,-10.905 45.261,-12.388 16.297,-4.991 23.871,-24.413 20.709,-39.516"
             id="path5223" /><path
             style="display:inline;opacity:1;fill:#380000;fill-opacity:1;fill-rule:nonzero;stroke:none;stroke-width:0.999998"
             d="m 383.48341,1535.0606 c -4.563,-0.849 -8.807,-2.435 -12.622,-4.571 1.399,10.364 1.38,25.849 0.765,47.678 -0.233,8.377 -0.439,15.607 -0.187,19.357 0.294,4.388 0.312,13.078 -2.794,22.082 50.346,-9.495 103.229,-21.397 120.606,-25.367 l -4.124,-12.784 c -0.71,0.333 -1.436,0.664 -2.184,0.994 l -0.159,0.065 c -1.67,0.663 -3.311,1.297 -4.934,1.903 l -8.835,3.088 c -50.719,16.502 -80.262,4.104 -90.468,-12.78 -7.527,-12.444 -5.476,-27.361 4.936,-39.665"
             id="path5225" /><path
             style="display:inline;opacity:1;fill:#380000;fill-opacity:1;fill-rule:nonzero;stroke:none;stroke-width:0.999998"
             d="m 499.26841,1558.5966 c 4.496,-6.67 3.778,-13.396 2.938,-21.176 -0.345,-3.218 -0.699,-6.539 -0.699,-10.028 -0.01,-4.487 -1.344,-8.097 -4.077,-11.045 -3.638,-3.918 -9.152,-5.672 -14.748,-4.711 -7.678,1.334 -22.352,5.663 -44.563,12.211 -10.093,2.976 -21.53,6.353 -34.581,10.112 -2.901,0.84 -5.756,1.371 -8.535,1.623 l 0.513,0.598 c -11.763,10.056 -15.289,23.293 -8.984,33.722 9.926,16.428 42.446,24.021 92.717,3.983 11.492,-5.084 16.324,-9.795 20.019,-15.289"
             id="path5227" /><path
             style="display:none;opacity:1;fill:#380000;fill-opacity:1;fill-rule:nonzero;stroke:none;stroke-width:0.999998"
             d="m 494.64541,1628.0266 c 1.713,-0.328 2.629,-1.493 3.023,-2.158 0.735,-1.239 0.896,-2.755 0.443,-4.158 l -5.422,-16.813 c -17.36,3.974 -76.906,17.41 -130.909,27.336 -0.557,0.696 -1.138,1.383 -1.759,2.055 -7.966,8.628 -19.469,13.097 -34.199,13.292 -13.264,0.168 -26.371,2.156 -39.048,4.077 -4.553,0.691 -8.984,1.362 -13.256,1.912 l -6.205,0.679 0.755,11.451 c 0.096,1.472 0.806,2.821 1.946,3.702 0.61,0.473 1.893,1.219 3.604,0.89 z"
             id="path5229" /><path
             style="display:inline;fill:#380000;fill-opacity:1;stroke:none;stroke-width:0.75px;stroke-linecap:butt;stroke-linejoin:miter;stroke-opacity:1"
             d="m 195.58944,1614.6146 c -66.64047,-68.8513 -67.37108,-68.8513 -67.37108,-68.8513 l -173.217268,-0.5836 4.03432,-9.2051 H 129.27139 c -3.41143,-12.3646 -0.001,-26.5988 4.179,-41.325 0.0523,14.2246 14.9055,53.5269 14.14617,58.5572 15.4573,16.0831 16.16394,16.2878 24.53367,25.507 0.51662,-0.4602 26.90869,24.1929 25.57665,25.3754 z"
             id="path5231"
             sodipodi:nodetypes="cccccccccc" /></g><g
           id="g5271"
           inkscape:label="cup highlights"
           style="display:inline"><g
             id="g5245"
             style="display:inline"><g
               id="g5235" /><g
               id="g5243"><g
                 clip-path="url(#clipPath1716)"
                 opacity="0.199997"
                 id="g5241"><g
                   transform="translate(1120.3174,1123.8926)"
                   id="g5239"><path
                     d="m 0,0 -7.607,-68.079 c -7.286,1.867 -15.77,4.126 -24.899,6.754 l 8.829,78.869 C -17.268,8.968 -8.783,3.366 0,0"
                     style="fill:#ffffff;fill-opacity:1;fill-rule:nonzero;stroke:none"
                     id="path5237" /></g></g></g></g><g
             id="g5257"
             style="display:inline"><g
               id="g5247" /><g
               id="g5255"
               style="display:inline"><g
                 clip-path="url(#clipPath1700)"
                 opacity="0.199997"
                 id="g5253"
                 style="display:inline"><g
                   transform="translate(1111.4414,1044.6318)"
                   id="g5251"
                   style="display:inline"><path
                     d="m 0,0 -11.227,-100.401 c -9.336,2.213 -17.729,4.288 -24.967,6.132 L -24.898,6.709 C -15.723,4.081 -7.238,1.821 0,0"
                     style="fill:#ffffff;fill-opacity:1;fill-rule:nonzero;stroke:none"
                     id="path5249" /></g></g></g></g><g
             id="g5269"
             style="display:inline"><g
               id="g5259" /><g
               id="g5267"><g
                 clip-path="url(#clipPath1684)"
                 opacity="0.199997"
                 id="g5265"><g
                   transform="translate(1098.9463,933.0723)"
                   id="g5263"><path
                     d="m 0,0 -1.659,-14.823 -25.084,4.795 1.799,16.137 C -17.659,4.266 -9.291,2.19 0,0"
                     style="fill:#ffffff;fill-opacity:1;fill-rule:nonzero;stroke:none"
                     id="path5261" /></g></g></g></g></g><g
           id="g5281"
           inkscape:label="cup"
           style="display:inline"><path
             d="m 1152.916,1092.2852 c -5.44,-0.392 -10.789,-3.159 -15.101,-8.023 -6.016,-6.778 -10.282,-18.328 -7.676,-32.645 -4.334,0.992 -10.328,2.398 -17.429,4.196 -7.285,1.868 -15.77,4.127 -24.898,6.755 -9.429,2.743 -19.528,5.879 -29.717,9.406 -1.408,0.484 -2.79,0.968 -4.173,1.452 -0.669,0.323 -1.384,0.577 -2.121,0.738 l 0.484,7.401 5.371,81.197 c 10.075,1.844 18.513,5.533 23.101,7.838 0.23,-0.415 0.438,-0.669 0.622,-0.738 3.366,-8.507 7.815,-17.152 13.233,-25.544 0.646,-0.991 1.315,-1.959 2.029,-2.882 6.409,-8.576 14.893,-14.178 23.676,-17.544 10.744,-4.127 21.925,-4.887 30.34,-3.666 -0.069,-0.184 -0.161,-0.345 -0.23,-0.53 -2.974,-7.907 -3.136,-18.097 2.489,-27.411"
             style="display:inline;fill:#f54d4c;fill-opacity:1;fill-rule:nonzero;stroke:none"
             id="path5273" /><path
             d="m 1183.9707,915.6895 -2.951,-9.106 c -0.761,-2.352 -3.043,-3.781 -5.303,-3.343 l -78.43,15.009 -25.084,4.794 -17.036,3.251 c -2.259,0.416 -3.85,2.605 -3.689,5.049 l 0.877,13.51 c 5.347,-1.43 12.656,-3.39 21.647,-5.672 7.285,-1.844 15.654,-3.919 24.945,-6.109 23.469,-5.579 52.771,-11.919 85.024,-17.383"
             style="fill:#f54d4c;fill-opacity:1;fill-rule:nonzero;stroke:none"
             id="path5275" /><path
             d="m 1193.8838,946.4209 -6.455,-19.988 c -33.198,5.58 -63.33,12.103 -87.214,17.798 -9.337,2.213 -17.729,4.288 -24.968,6.132 -9.014,2.306 -16.276,4.243 -21.372,5.625 -0.276,0.07 -0.507,0.139 -0.761,0.208 l 6.802,103.375 c 9.176,-3.066 18.19,-5.81 26.627,-8.23 9.176,-2.628 17.66,-4.888 24.899,-6.709 10.905,-2.743 19.02,-4.519 22.455,-5.256 1.291,-2.997 2.858,-6.063 4.796,-9.222 2.397,-3.92 5.555,-7.654 9.474,-11.204 -5.095,-1.683 -9.867,-4.98 -13.347,-9.568 -6.894,-9.152 -6.457,-20.565 1.175,-29.809 9.451,-11.458 20.218,-22.201 40.852,-28.956 l 9.015,-2.536 c 2.536,-0.599 5.209,-1.152 8.022,-1.66"
             style="fill:#f54d4c;fill-opacity:1;fill-rule:nonzero;stroke:none"
             id="path5277" /><path
             d="m 1180.4375,1143.9521 c -4.562,-0.849 -8.807,-2.435 -12.622,-4.571 1.399,10.364 1.381,25.849 0.766,47.678 -0.234,8.377 -0.44,15.607 -0.188,19.357 0.294,4.388 0.313,13.078 -2.794,22.082 50.347,-9.495 103.23,-21.397 120.607,-25.367 l -4.124,-12.783 c -0.71,0.332 -1.437,0.663 -2.185,0.993 l -0.158,0.065 c -1.67,0.663 -3.312,1.297 -4.935,1.903 l -8.835,3.088 c -50.719,16.502 -80.261,4.104 -90.468,-12.78 -7.527,-12.444 -5.475,-27.361 4.936,-39.665"
             style="fill:#f54d4c;fill-opacity:1;fill-rule:nonzero;stroke:none"
             id="path5279" /></g><g
           id="g5293"
           style="display:inline;fill:#e3bc7b;fill-opacity:1"
           inkscape:label="hand"><path
             d="m 1040.9111,940.8262 -0.081,-1.226 c -2.566,-0.07 -5.097,-0.104 -7.588,-0.1 -4.162,0.008 -8.23,0.107 -12.173,0.326 -34.796,1.894 -60.944,11.8 -74.936,28.74 -9.105,11.018 -12.351,24.358 -9.133,37.567 0,0 -14.991,-20.423 1.94,-43.508 0.482,-0.657 1.054,-1.251 1.605,-1.857 -70.738,-13.479 -137.25,-24.338 -157.195,-27.538 l -14.646,11.988 1.885,39.935 -21.008,35.747 -1.073,25.457 1.259,1.045 15.812,60.234 -2.985,-0.868 -6.604,38.098 h 170.235 c -4.244,-14.832 4.18,-41.325 4.18,-41.325 0,1.035 0.009,2.202 0.037,3.442 0.308,15.159 2.892,44.768 17.585,59.46 16.94,16.941 30.942,30.812 42.677,42.277 5.755,5.618 10.947,10.634 15.689,15.163 12.072,11.526 21.139,19.791 28.472,26.013 8.62,7.314 26.624,4.59 47.464,1.427 12.389,-1.875 26.428,-4.002 40.327,-4.179 12.071,-0.158 21.307,-3.619 27.473,-10.289 9.469,-10.271 9.254,-25.421 8.955,-29.814 -0.279,-4.198 -0.074,-11.278 0.178,-20.243 0.297,-10.821 0.68,-24.282 0.176,-35.392 -0.746,-16.67 -3.133,-19.674 -3.516,-20.047 -7.389,-4.338 -38.704,-4.804 -53.481,18.031 -15.243,23.555 -22.444,49.992 -17.929,65.785 l -8.965,2.566 c -0.494,-1.717 -0.877,-3.517 -1.147,-5.402 -1.297,-8.899 -0.196,-19.543 3.003,-30.84 -0.035,0.016 -0.033,-0.096 0,-0.301 -5.638,-4.825 -13.886,-7.13 -21.627,-8.176 -2.426,-0.328 -4.799,-0.534 -7.028,-0.653 -7.829,-0.418 -13.846,0.211 -13.846,0.211 v -9.849 c 3.863,-0.81 7.724,-1.128 11.491,-1.088 l -5.737,-86.977 c -0.347,-5.276 3.116,-10.007 8.128,-11.253 0.07,-0.025 0.141,-0.05 0.211,-0.075 z"
             style="fill:#e3bc7b;fill-opacity:1;fill-rule:nonzero;stroke:none"
             id="path5283" /><path
             d="m 1266.8936,949.1826 c -5.672,-11.903 -18.713,-20.439 -38.77,-25.355 -9.834,-2.41 -21.238,-3.042 -30.924,-3.447 l 7.89,24.462 c 8.285,-0.91 17.605,-1.407 28.175,-1.407 h 1.986 l -0.055,9.329 h -1.922 c -58.191,0 -75.841,15.494 -90.095,32.762 -6.67,8.078 -3.441,14.888 -0.923,18.227 4.496,5.961 12.388,8.713 17.976,6.279 9.553,-5.85 21.754,-11.195 36.913,-16.166 15.159,-4.963 33.284,-9.553 54.665,-13.891 2.678,-0.541 5.233,-0.793 7.687,-0.793 2.761,0 5.382,0.326 7.845,0.942 2.341,-6.8 5.112,-19.272 -0.448,-30.942"
             style="fill:#e3bc7b;fill-opacity:1;fill-rule:nonzero;stroke:none"
             id="path5285" /><path
             d="m 1284.543,1011.5898 c -3.134,-12.621 -13.106,-26.082 -30.877,-22.473 -61.466,12.492 -95.477,27.081 -107.026,45.925 -11.297,18.424 -9.068,34.889 -1.847,43.032 2.854,3.228 6.222,4.926 9.524,4.926 1.372,0 2.734,-0.289 4.039,-0.886 18.461,-8.452 81.784,-34.17 111.56,-37.827 0.737,-0.094 1.465,-0.168 2.174,-0.224 12.472,-4.03 15.727,-19.301 12.453,-32.473"
             style="fill:#e3bc7b;fill-opacity:1;fill-rule:nonzero;stroke:none"
             id="path5287" /><path
             d="m 1298.4053,1071.8896 c -1.334,-6.362 -6.67,-20.905 -27.351,-18.35 -23.47,2.892 -69.19,20.281 -94.993,31.064 -11.986,5.644 -18.469,14.115 -18.469,23.602 0,2.677 0.512,5.429 1.567,8.218 4.785,12.696 20.578,22.706 38.75,17.463 13.022,-3.75 24.45,-7.118 34.525,-10.093 22.211,-6.549 36.978,-10.905 45.262,-12.388 16.297,-4.992 23.871,-24.413 20.709,-39.516"
             style="fill:#e3bc7b;fill-opacity:1;fill-rule:nonzero;stroke:none"
             id="path5289" /><path
             d="m 1296.2227,1167.4883 c 4.496,-6.67 3.778,-13.396 2.938,-21.176 -0.344,-3.219 -0.699,-6.539 -0.699,-10.028 -0.01,-4.487 -1.343,-8.097 -4.077,-11.045 -3.638,-3.918 -9.151,-5.672 -14.748,-4.711 -7.678,1.334 -22.352,5.663 -44.562,12.211 -10.094,2.976 -21.531,6.353 -34.581,10.112 -2.902,0.84 -5.756,1.371 -8.536,1.623 l 0.513,0.597 c -11.763,10.057 -15.289,23.294 -8.983,33.723 9.925,16.427 42.445,24.021 92.716,3.983 11.493,-5.084 16.325,-9.795 20.019,-15.289"
             style="fill:#e3bc7b;fill-opacity:1;fill-rule:nonzero;stroke:none"
             id="path5291" /></g><g
           id="g5305"
           style="display:inline"><g
             id="g5295" /><g
             id="g5303"><g
               clip-path="url(#clipPath1732)"
               opacity="0.199997"
               id="g5301"><g
                 transform="translate(1136.2939,1266.6211)"
                 id="g5299"><path
                   d="m 0,0 -1.291,-11.458 c -3.78,0.807 -7.861,1.245 -12.219,1.314 -4.426,0.046 -8.829,0.3 -13.186,0.715 l 1.591,14.224 z"
                   style="fill:#ffffff;fill-opacity:1;fill-rule:nonzero;stroke:none"
                   id="path5297" /></g></g></g></g><g
           id="g5313"
           inkscape:label="liquid"
           style="display:inline"><path
             d="m 1348.4958,1266.7855 c -17.929,6.365 -48.381,-19.388 -48.381,-19.388 53.779,-8.339 66.309,13.024 48.381,19.388"
             style="display:none;fill:#ffc400;fill-opacity:1;fill-rule:nonzero;stroke:none"
             id="path5307" /><path
             d="m 1280.4187,1357.0091 c -14.2821,-3.4421 -6.594,-47.4868 -6.594,-47.4868 33.4468,21.5576 20.876,50.9288 6.594,47.4868"
             style="display:inline;fill:#ffc400;fill-opacity:1;fill-rule:nonzero;stroke:none"
             id="path5309" /><path
             id="path5311"
             style="display:inline;opacity:1;fill:#ffc400;fill-opacity:1;stroke:none;stroke-width:1px;stroke-linecap:butt;stroke-linejoin:miter;stroke-opacity:1"
             inkscape:label="liquid"
             d="m 1442.877,1007.7637 c -15.183,-0.3502 -34.9793,16.3834 -35.4708,35.6191 -30.2774,-30.3425 -59.7346,-24.8798 -68.1171,-1.6504 -6.1559,23.4879 8.161,53.2701 46.2812,60.7012 l 143.6113,-28.0332 c -22.0825,-6.4725 -27.5221,-18.8646 -49.5332,-38.8496 -11.0182,-10.0042 -21.5884,-27.437 -36.7714,-27.7871 z m 9.2207,20.2675 c 1.9001,-0.056 4.5101,0.7219 7.1074,2.1973 4.1556,2.3607 7.3597,5.7213 6.0605,7.7695 -1.2992,2.0483 -7.2693,0.2045 -10.0664,-1.5449 -2.7972,-1.7492 -6.8625,-5.6234 -5.5996,-7.3906 0.4736,-0.6627 1.3581,-0.9977 2.4981,-1.0313 z m -73.9278,11.0411 a 16.409392,6.4745322 68.52772 0 1 11.1133,13.0839 16.409392,6.4745322 68.52772 0 1 -0.02,17.6407 16.409392,6.4745322 68.52772 0 1 -12.0313,-12.9024 16.409392,6.4745322 68.52772 0 1 0.02,-17.6386 16.409392,6.4745322 68.52772 0 1 0.9179,-0.1836 z"
             transform="matrix(-0.75000002,0,0,-0.75000002,2323.9782,2075.706)" /></g></g></g><g
       id="g1530"
       style="display:inline"
       transform="translate(-323.77265,-75.705968)"
       inkscape:label="left hand"><g
         id="g1532"
         clip-path="url(#clipPath1536)"><g
           id="g1538"
           transform="translate(544.7607,676.2939)"
           style="display:none"><path
             d="m 0,0 c 3.66,3.035 5.49,7.344 5.49,12.932 0,5.681 -1.83,10.04 -5.49,13.075 -3.662,3.032 -9.008,4.551 -16.036,4.551 H -35.108 V -4.551 h 19.072 C -9.008,-4.551 -3.662,-3.034 0,0 m 8.596,45.148 c 6.597,-2.986 11.679,-7.223 15.243,-12.712 3.562,-5.491 5.346,-11.993 5.346,-19.504 0,-7.418 -1.784,-13.895 -5.346,-19.432 -3.564,-5.54 -8.646,-9.777 -15.243,-12.714 -6.598,-2.94 -14.375,-4.407 -23.331,-4.407 H -35.108 V -51.505 H -58.511 V 49.628 h 43.776 c 8.956,0 16.733,-1.494 23.331,-4.48"
             style="fill:#380000;fill-opacity:1;fill-rule:nonzero;stroke:none"
             id="path1540" /></g><g
           id="g1542"
           transform="translate(644.7388,664.2295)"
           style="display:none"><path
             d="M 0,0 -16.038,38.721 -32.073,0 Z m 7.368,-17.77 h -46.955 l -8.957,-21.67 H -72.527 L -27.451,61.692 H -4.335 L 40.886,-39.44 h -24.56 z"
             style="fill:#380000;fill-opacity:1;fill-rule:nonzero;stroke:none"
             id="path1544" /></g><g
           id="g1546"
           transform="translate(754.6816,702.3008)"
           style="display:none"><path
             d="m 0,0 c -3.662,3.032 -9.008,4.551 -16.036,4.551 h -19.072 v -35.252 h 19.072 c 7.028,0 12.374,1.538 16.036,4.623 3.66,3.08 5.49,7.415 5.49,13.003 C 5.49,-7.394 3.66,-3.035 0,0 m 5.923,-77.512 -19.504,28.172 h -1.154 -20.373 V -77.512 H -58.511 V 23.621 h 43.776 c 8.956,0 16.733,-1.494 23.331,-4.479 6.596,-2.987 11.679,-7.224 15.243,-12.713 3.562,-5.491 5.346,-11.992 5.346,-19.504 0,-7.514 -1.806,-13.992 -5.418,-19.432 -3.612,-5.444 -8.742,-9.609 -15.387,-12.498 l 22.682,-32.507 z"
             style="fill:#380000;fill-opacity:1;fill-rule:nonzero;stroke:none"
             id="path1548" /></g><g
           id="g1550"
           transform="translate(821.8608,706.8516)"
           style="display:none"><path
             d="m 0,0 h -32.363 v 19.07 h 88.13 V 0 H 23.405 V -82.063 H 0 Z"
             style="fill:#380000;fill-opacity:1;fill-rule:nonzero;stroke:none"
             id="path1552" /></g><g
           id="g1554"
           transform="translate(936.8657,660.6182)"
           style="display:none"><path
             d="M 0,0 V -35.829 H -23.405 V 0.289 l -39.152,65.015 h 24.85 l 27.016,-44.933 27.017,44.933 h 22.971 z"
             style="fill:#380000;fill-opacity:1;fill-rule:nonzero;stroke:none"
             id="path1556" /></g><g
           id="g1558"
           transform="translate(1051.002,672.6826)"
           style="display:none"><path
             d="m 0,0 c 5.296,4.381 7.945,10.569 7.945,18.564 0,8.187 -2.649,14.47 -7.945,18.855 -5.3,4.381 -12.957,6.574 -22.972,6.574 H -49.846 V -6.573 h 26.874 C -12.957,-6.573 -5.3,-4.384 0,0 m 7.657,43.993 c 7.318,-6.167 10.98,-14.642 10.98,-25.429 0,-10.788 -3.662,-19.24 -10.98,-25.355 -7.321,-6.116 -17.434,-9.173 -30.342,-9.173 h -27.161 v -31.93 H -60.537 V 53.239 h 37.852 c 12.908,0 23.021,-3.085 30.342,-9.246"
             style="fill:#380000;fill-opacity:1;fill-rule:nonzero;stroke:none"
             id="path1560" /></g><g
           id="g1562"
           transform="translate(1103.5898,635.1914)"
           style="display:none"><path
             d="M 0,0 C -7.321,7.513 -10.979,18.442 -10.979,32.796 V 90.73 H -0.29 V 33.229 c 0,-11.751 2.649,-20.516 7.947,-26.295 5.296,-5.778 12.953,-8.668 22.972,-8.668 10.112,0 17.818,2.89 23.116,8.668 5.296,5.779 7.946,14.544 7.946,26.295 V 90.73 H 72.094 V 32.796 C 72.094,18.442 68.456,7.513 61.185,0 53.913,-7.514 43.727,-11.27 30.629,-11.27 17.528,-11.27 7.317,-7.514 0,0"
             style="fill:#380000;fill-opacity:1;fill-rule:nonzero;stroke:none"
             id="path1564" /></g><g
           id="g1566"
           transform="translate(1292.4189,725.9219)"
           style="display:none"><path
             d="m 0,0 v -101.133 h -8.814 l -65.014,82.063 v -82.063 H -84.52 V 0 h 8.814 l 65.158,-82.063 V 0 Z"
             style="fill:#380000;fill-opacity:1;fill-rule:nonzero;stroke:none"
             id="path1568" /></g><g
           id="g1570"
           transform="translate(1342.1885,630.5684)"
           style="display:none"><path
             d="m 0,0 c -8.043,4.429 -14.354,10.568 -18.927,18.421 -4.577,7.849 -6.862,16.637 -6.862,26.366 0,9.727 2.285,18.515 6.862,26.366 4.573,7.849 10.907,13.99 18.998,18.421 8.091,4.429 17.143,6.647 27.161,6.647 7.514,0 14.448,-1.253 20.805,-3.756 6.357,-2.508 11.75,-6.165 16.182,-10.982 l -6.791,-6.791 c -7.899,7.996 -17.867,11.994 -29.906,11.994 -7.997,0 -15.266,-1.832 -21.817,-5.491 -6.551,-3.662 -11.679,-8.67 -15.387,-15.026 -3.708,-6.357 -5.561,-13.485 -5.561,-21.382 0,-7.899 1.853,-15.025 5.561,-21.382 3.708,-6.356 8.836,-11.367 15.387,-15.027 6.551,-3.661 13.82,-5.489 21.817,-5.489 12.136,0 22.105,4.045 29.906,12.135 l 6.791,-6.79 C 59.787,3.418 54.369,-0.268 47.965,-2.816 41.559,-5.37 34.601,-6.646 27.089,-6.646 17.07,-6.646 8.04,-4.431 0,0"
             style="fill:#380000;fill-opacity:1;fill-rule:nonzero;stroke:none"
             id="path1572" /></g><g
           id="g1574"
           transform="translate(1513.751,725.9219)"
           style="display:none"><path
             d="m 0,0 v -101.133 h -10.549 v 46.665 h -63.279 v -46.665 H -84.521 V 0 h 10.693 v -45.077 h 63.279 V 0 Z"
             style="fill:#380000;fill-opacity:1;fill-rule:nonzero;stroke:none"
             id="path1576" /></g><g
           id="g1594"
           transform="translate(1295.0693,1230.6104)"
           style="display:inline"><path
             d="m 0,0 -5.418,-16.83 c -17.36,3.989 -76.909,17.43 -130.926,27.343 -0.552,0.691 -1.129,1.383 -1.752,2.052 -5.601,6.063 -12.956,10.074 -21.97,11.988 -3.781,0.807 -7.862,1.245 -12.219,1.314 -4.426,0.046 -8.829,0.3 -13.187,0.715 -8.76,0.76 -17.406,2.075 -25.867,3.366 -4.564,0.691 -8.991,1.36 -13.256,1.913 l -6.202,0.668 0.762,11.458 c 0.092,1.476 0.783,2.813 1.936,3.689 0.599,0.484 1.89,1.222 3.596,0.899 l 40.622,-7.769 25.106,-4.795 L -3.458,6.317 C -1.753,5.971 -0.83,4.818 -0.438,4.15 0.299,2.905 0.461,1.406 0,0"
             style="fill:#ffffff;fill-opacity:1;fill-rule:nonzero;stroke:none"
             id="path1596" /></g><g
           id="g1162"
           inkscape:label="breaks"
           style="display:inline;fill:#feff00;fill-opacity:1"><path
             d="m 693.5903,1067.5664 -59.373,9.604 24.448,-23.928 z"
             style="fill:#feff00;fill-opacity:1;fill-rule:nonzero;stroke:none"
             id="path1620" /><path
             d="m 755.1523,783.7871 8.796,36.709 -42.502,-42.555 z"
             style="fill:#feff00;fill-opacity:1;fill-rule:nonzero;stroke:none"
             id="path1624" /><path
             d="m 645.6045,1237.6123 2.539,-34.115 35.679,-12.325 z"
             style="fill:#feff00;fill-opacity:1;fill-rule:nonzero;stroke:none"
             id="path1628" /><path
             d="m 827.3184,1376.0781 -23.004,-25.319 15.612,-34.369 z"
             style="fill:#feff00;fill-opacity:1;fill-rule:nonzero;stroke:none"
             id="path1632" /><path
             d="m 987.3091,1319.2017 -8.821,-36.703 42.53,42.526 z"
             style="fill:#feff00;fill-opacity:1;fill-rule:nonzero;stroke:none"
             id="path1636" /><path
             d="m 736.6904,1341.8242 -7.739,-15.253 12.078,-14.504 z"
             style="fill:#feff00;fill-opacity:1;fill-rule:nonzero;stroke:none"
             id="path1640" /><path
             d="m 617.7476,1146.0547 6.894,-15.654 18.873,0.151 z"
             style="fill:#feff00;fill-opacity:1;fill-rule:nonzero;stroke:none"
             id="path1644" /><path
             d="m 655.0137,963.0859 16.218,-5.436 12.591,14.061 z"
             style="fill:#feff00;fill-opacity:1;fill-rule:nonzero;stroke:none"
             id="path1648" /><path
             d="m 695.4038,857.7295 12.591,14.062 -28.809,-8.626 z"
             style="fill:#feff00;fill-opacity:1;fill-rule:nonzero;stroke:none"
             id="path1652" /><path
             d="m 837.9961,747.1396 10.937,13.151 -8.55,16.827 z"
             style="fill:#feff00;fill-opacity:1;fill-rule:nonzero;stroke:none"
             id="path1656" /><path
             d="m 994.6377,757.9795 1.741,34.165 -33.862,16.684 z"
             style="fill:#feff00;fill-opacity:1;fill-rule:nonzero;stroke:none"
             id="path1660" /><path
             d="m 1021.7012,873.7988 28.71,-8.946 -10.411,13.57 z"
             style="fill:#feff00;fill-opacity:1;fill-rule:nonzero;stroke:none"
             id="path1664" /></g><g
           id="g1666"
           transform="translate(1303.3369,1264.1392)"
           style="display:inline;opacity:1;fill:#818181;fill-opacity:1"
           inkscape:label="bg"><path
             d="m -273.42423,-320.79137 c -4.162,0.008 -4.90077,-3.74063 -8.84377,-3.52163 -34.795,1.894 -60.943,11.8 -74.936,28.74 -9.105,11.018 -12.351,24.358 -9.133,37.567 0,0 -14.991,-20.423 1.941,-43.508 0.481,-0.657 1.054,-1.251 1.604,-1.857 -70.738,-13.479 -137.25,-24.338 -157.195,-27.538 l -14.645,11.988 1.884,39.935 -21.008,35.747 -1.073,25.457 1.26,1.045 15.812,60.234 -2.986,-0.868 -6.604,38.098 h 170.236 c -4.244,-14.832 4.179,-41.325 4.179,-41.325 0,1.036 0.009,2.202 0.037,3.442 0.308,15.159 2.892,44.768 17.585,59.46 60.52313,112.864263 53.51661,-158.31585 81.88577,-223.09537 z M -316.69,-40.793 l 2.965,13.489 18.288,2.778 7.908,14.68 0.494,16.267 -6.92,-14.68 -7.413,-8.332 -28.173,-1.587 -11.861,18.251 v 11.506 l -7.909,11.108 15.816,7.936 0.495,12.696 5.931,9.125 -12.851,-7.141 0.989,-8.332 -23.23,-15.87 14.828,-15.474 -7.908,-17.457 h -21.747 l -10.379,19.441 4.448,9.125 -4.448,9.522 4.942,11.507 -11.367,18.647 2.471,-17.06 -8.403,-9.522 5.932,-7.539 -0.989,-16.267 -4.943,-8.332 -27.677,8.332 9.39,17.854 -6.425,11.903 4.449,20.631 -14.334,-17.06 3.954,-5.555 V 11.182 l -9.884,-12.3 -19.276,6.745 4.942,20.235 -16.804,-15.474 16.804,-13.49 -16.804,-10.712 -22.736,20.631 -15.815,6.349 v 23.805 l -10.874,9.126 11.862,28.169 -25.207,-32.931 15.816,-8.729 -4.448,-19.043 23.23,-17.855 -31.138,-31.344 -34.103,6.745 6.426,26.98 9.39,7.141 -41.516,17.061 25.7,-14.283 -11.862,-26.583 4.449,-18.251 30.643,-6.745 -9.391,-25.392 -35.585,-1.984 -15.322,10.713 -6.425,27.376 -20.759,7.935 13.345,-13.093 1.483,-26.186 21.252,-11.506 29.655,-4.761 3.954,-19.441 -10.379,-11.109 -33.115,3.571 -26.195,-9.523 h 34.103 l 35.586,-3.967 5.437,-31.344 -34.597,-14.283 -50.908,17.457 48.931,-35.311 35.585,10.315 -9.391,-35.772 -33.114,-27.312 -21.252,11.903 -15.816,-7.935 18.781,0.397 11.368,-25.79 -18.782,-20.631 30.644,16.664 -2.472,14.68 28.666,13.886 0.989,-23.408 -11.862,-19.838 19.77,16.267 12.356,-21.028 -1.483,-31.344 -34.103,-11.903 -31.632,5.158 29.655,-10.315 -10.873,-30.948 23.23,13.093 0.494,19.838 23.229,3.571 25.701,-21.028 -19.275,-26.186 5.436,-14.284 -39.539,-22.217 -1.977,-30.551 11.861,27.773 48.931,15.076 -8.896,25.79 8.896,9.125 34.103,-22.218 -2.471,-32.534 -8.897,-18.647 -32.62,-4.365 16.804,-2.38 -9.39,-15.87 21.746,-19.838 -11.367,20.234 13.344,16.663 13.345,-5.157 0.494,15.474 15.816,32.93 33.609,-5.158 4.448,-24.598 -15.816,-39.676 13.345,-10.712 -3.954,15.076 20.758,46.421 0.495,17.457 23.723,-4.761 1.483,-14.679 -9.391,-15.078 19.276,-20.631 -10.379,23.409 10.379,14.283 -1.977,14.68 15.322,7.141 19.77,-16.266 -2.472,-18.251 24.218,-14.68 -14.333,16.267 4.943,21.028 -16.31,11.506 c 30.579,6.083 56.785,25.631 71.332,53.209 l -0.89131,7.78624 c 0.9,-0.009 6.45531,-0.67024 7.36731,-0.67024"
             style="display:inline;fill:#818181;fill-opacity:1;fill-rule:nonzero;stroke:none"
             id="path1668"
             sodipodi:nodetypes="cccccccccccccccccccccccccccccccccccccccccccccccccccccccccccccccccccccccccccccccccccccccccccccccccccccccccccccccccccccccccccccccccccccccccccccccccccccccccccccccccccccccc" /></g><path
           style="display:inline;opacity:1;fill:#000000;fill-opacity:1;stroke:none;stroke-width:0.75px;stroke-linecap:butt;stroke-linejoin:miter;stroke-opacity:1"
           d="m 783.3501,933.2302 c 53.22477,10.73676 106.32882,20.93659 157.195,27.538 -19.16319,19.85185 -9.16387,36.48919 -3.20999,47.2001 -2.76391,-18.43675 2.13076,-32.50032 14.36696,-45.31133 21.06522,-15.36166 44.82967,-22.80148 89.12783,-23.05677 l -0.503,-9.342 -9.225,-0.075 -5.6023,-10.82483 c -37.52805,8.62166 -67.87531,13.6467 -77.003,29.37818 L 794.16509,919.09838 Z"
           id="path2328"
           sodipodi:nodetypes="ccccccccccc"
           inkscape:label="shadow" /><g
           id="g5031"
           inkscape:label="hand outline"
           style="display:inline;opacity:1;fill:#380000;fill-opacity:1"
           transform="translate(796.95451,-391.1084)"><path
             id="path5011"
             style="display:inline;opacity:1;fill:#380000;fill-opacity:1;fill-rule:nonzero;stroke:none;stroke-width:1.33333"
             d="m 994.12109,1047.0605 c -4.404,0.1134 -8.72101,1.6278 -12.29101,4.3868 -4.89067,3.78 -7.92918,9.5119 -8.33985,15.7265 l -1.00976,15.2989 c -13.08933,-0.081 -24.20296,2.1689 -32.4043,9.1289 -11.86,10.0573 -48.38086,44.664 -48.38086,44.664 l 65.31195,361.8658 -1.60101,29.1323 c 0,0 7.39733,18.0715 17,19.9101 l 160.71875,30.7305 c 1.3,0.248 2.5956,0.3691 3.877,0.3691 8.988,0 17.2615,-5.8926 20.1562,-14.8632 l 3.3438,-10.3672 0.748,-0.027 c 13.4573,-0.536 31.891,-1.2689 47.5137,-5.0996 30.5346,-7.488 50.7095,-21.1331 59.9629,-40.5371 9.4533,-19.8507 4.9121,-40.1625 0.8828,-51.3945 12.0266,-7.2867 20.0507,-20.2964 23.4961,-34.1524 4.2293,-17.028 1.741,-36.1941 -9.291,-48.2461 16.256,-5.1506 24.9997,-18.8692 27.873,-32.6132 4.104,-19.628 -2.3268,-43.6585 -18.8828,-57.7012 3.9067,-1.7787 7.4765,-4.303 10.4512,-7.5137 5.808,-6.2547 8.7435,-14.0406 8.7675,-23.1699 0,-4.0053 0.4245,-7.9251 0.8711,-12.0664 1.1947,-11.1827 2.5507,-23.8546 -5.9707,-36.5039 -4.3093,-6.4107 -9.3465,-11.5477 -15.9492,-16.0957 l 18.2422,-56.5508 c 1.9093,-5.928 1.1995,-12.376 -1.9512,-17.6934 -3.068,-5.1746 -8.1831,-8.7843 -14.0351,-9.9043 l -10.7149,-2.0488 -143.4199,-27.4258 -140.5664,-26.8789 c -1.46334,-0.279 -2.94021,-0.3971 -4.40821,-0.3594 z m 0.80469,14.8829 c 0.41527,0.013 0.84484,0.06 1.28711,0.1367 l 294.22261,56.3027 c 2.1098,0.3728 5.8955,2.7005 4.627,8.4121 l -7.2246,22.4395 c -75.6487,-17.1099 -130.0522,-28.1891 -174.5547,-36.459 -7.3053,-8.938 -16.7613,-15.38 -31.6426,-18.7188 -5.7167,-0.9793 -11.36,-2.0654 -18.0429,-1.6601 l -15.8301,-1.0449 c -6.0533,-0.5118 -11.5553,-1.1806 -17.086,-1.8418 -13.9158,-2.212 -28.5416,-4.1819 -43.35543,-6.0879 l 1.08985,-16.5821 c 1.37005,-3.5035 3.60288,-4.9908 6.50976,-4.8964 z"
             transform="matrix(0.75000002,0,0,-0.75000002,-473.18186,2466.8144)"
             sodipodi:nodetypes="csccccccccscccccccccccccccccccccccccccccccccccc" /><path
             style="display:inline;opacity:1;fill:#380000;fill-opacity:1;fill-rule:nonzero;stroke:none;stroke-width:0.999998"
             d="m 243.95642,1331.9346 -0.081,-1.226 c -2.56601,-0.07 -5.097,-0.104 -7.58801,-0.1 -4.16199,0.01 -8.22999,0.107 -12.17299,0.326 -34.795,1.894 -60.943,11.8 -74.93601,28.74 -9.105,11.018 -12.351,24.358 -9.13299,37.567 0,0 -14.991,-20.423 1.941,-43.508 0.48099,-0.657 1.05399,-1.251 1.604,-1.857 -70.738005,-13.479 -137.2500045,-24.338 -157.195005,-27.538 l -14.645,11.988 1.884,39.935 -21.008,35.747 -1.073003,25.457 1.26,1.045 15.812003,60.234 -2.986005,-0.868 -6.603998,38.098 H 129.27139 c -4.244,-14.832 4.179,-41.325 4.179,-41.325 0,1.036 0.009,2.202 0.037,3.442 0.30801,15.159 2.892,44.768 17.58501,59.46 16.93999,16.941 30.942,30.812 42.678,42.277 5.754,5.618 10.94599,10.634 15.68899,15.163 12.07101,11.527 21.138,19.791 28.471,26.013 8.62001,7.314 26.624,4.59 47.46401,1.427 12.38899,-1.875 26.428,-4.002 40.327,-4.179 12.072,-0.158 21.30699,-3.619 27.47299,-10.289 9.46901,-10.271 9.254,-25.421 8.955,-29.814 -0.279,-4.198 -0.074,-11.278 0.17801,-20.243 0.29799,-10.821 0.67999,-24.282 0.177,-35.392 -0.747,-16.67 -3.13401,-19.674 -3.51701,-20.047 -7.389,-4.338 -38.704,-4.804 -53.48099,18.031 -15.243,23.555 -22.44401,49.992 -17.92901,65.785 l -8.96499,2.566 c -0.49401,-1.717 -0.877,-3.517 -1.147,-5.402 -1.296,-8.899 -0.19601,-19.543 3.003,-30.84 -0.035,0.016 -0.033,-0.096 -0.003,-0.301 -5.63801,-4.825 -13.88601,-7.13 -21.62601,-8.176 -2.427,-0.328 -4.8,-0.534 -7.029,-0.653 -7.829,-0.418 -13.845,0.211 -13.845,0.211 v -9.849 c 3.862,-0.81 7.723,-1.128 11.491,-1.088 l -5.73799,-86.977 c -0.34701,-5.276 3.117,-10.007 8.12799,-11.253 0.071,-0.025 0.141,-0.05 0.211,-0.075 z"
             id="path5009" /><path
             style="display:inline;opacity:1;fill:#380000;fill-opacity:1;fill-rule:nonzero;stroke:none;stroke-width:0.999998"
             d="m 333.18142,1442.7336 c -13.44801,3.053 -42.396,10.101 -72.053,20.347 -1.386,0.478 -2.771,0.963 -4.158,1.456 -0.672,0.313 -1.379,0.566 -2.123,0.736 l 0.48699,7.39 5.35701,81.211 c 10.074,1.847 18.535,5.537 23.117,7.83 0.226,-0.4 0.435,-0.664 0.615,-0.728 3.367,-8.508 7.808,-17.165 13.228,-25.542 13.927,-21.52 40.02799,-26.437 56.04499,-24.095 -0.075,-0.177 -0.159,-0.345 -0.22299,-0.523 -2.986,-7.929 -3.145,-18.116 2.49999,-27.416 -5.448,-0.402 -10.79299,-3.153 -15.11199,-8.023 -6.01701,-6.794 -10.278,-18.344 -7.68,-32.643"
             id="path5007" /><path
             style="display:inline;opacity:1;fill:#380000;fill-opacity:1;fill-rule:nonzero;stroke:none;stroke-width:0.999998"
             d="m 384.06842,1297.6806 c -0.754,-2.337 -3.04,-3.771 -5.311,-3.337 l -120.53701,23.05 c -2.27599,0.435 -3.86899,2.611 -3.708,5.062 l 0.891,13.503 c 20.59501,-5.516 70.855,-18.848 131.60801,-29.153 z"
             id="path5005" /><path
             style="display:inline;opacity:1;fill:#380000;fill-opacity:1;fill-rule:nonzero;stroke:none;stroke-width:0.999998"
             d="m 390.47342,1317.5386 c -62.33101,10.484 -113.854,24.286 -133.55801,29.565 -0.26299,0.07 -0.51199,0.137 -0.76299,0.204 l 6.818,103.362 c 34.103,-11.383 66.11399,-18.51 73.96799,-20.192 1.28501,-2.993 2.865,-6.065 4.79001,-9.206 2.41599,-3.927 5.559,-7.659 9.477,-11.213 -5.09301,-1.679 -9.86901,-4.972 -13.348,-9.571 -6.894,-9.142 -6.447,-20.56 1.174,-29.795 9.45999,-11.465 20.235,-22.221 40.869,-28.975 l 9.003,-2.528 c 2.539,-0.605 5.214,-1.153 8.021,-1.65 z"
             id="path5003" /><path
             style="display:inline;opacity:1;fill:#380000;fill-opacity:1;fill-rule:nonzero;stroke:none;stroke-width:0.999998"
             d="m 469.93941,1340.2906 c -5.672,-11.903 -18.713,-20.439 -38.77,-25.355 -9.834,-2.409 -21.238,-3.042 -30.925,-3.446 l 7.891,24.462 c 8.285,-0.911 17.604,-1.408 28.175,-1.408 h 1.986 l -0.056,9.329 h -1.92099 c -58.191,0 -75.841,15.495 -90.095,32.762 -6.67001,8.078 -3.44201,14.888 -0.923,18.228 4.496,5.961 12.38799,8.713 17.976,6.278 9.552,-5.849 21.753,-11.194 36.913,-16.166 15.159,-4.963 33.284,-9.553 54.665,-13.891 2.677,-0.541 5.233,-0.793 7.686,-0.793 2.76199,0 5.383,0.327 7.846,0.943 2.341,-6.801 5.111,-19.273 -0.448,-30.943"
             id="path5001" /><path
             style="display:inline;opacity:1;fill:#380000;fill-opacity:1;fill-rule:nonzero;stroke:none;stroke-width:0.999998"
             d="m 487.58841,1402.6986 c -3.134,-12.621 -13.106,-26.082 -30.877,-22.473 -61.466,12.491 -95.477,27.081 -107.026,45.925 -11.297,18.424 -9.068,34.889 -1.847,43.032 2.855,3.228 6.222,4.926 9.524,4.926 1.372,0 2.734,-0.29 4.04,-0.886 18.46,-8.452 81.783,-34.171 111.559,-37.828 0.737,-0.093 1.465,-0.168 2.174,-0.224 12.472,-4.029 15.727,-19.3 12.453,-32.472"
             id="path4999" /><path
             style="display:inline;opacity:1;fill:#380000;fill-opacity:1;fill-rule:nonzero;stroke:none;stroke-width:0.999998"
             d="m 501.45041,1462.9976 c -1.334,-6.362 -6.67,-20.905 -27.35,-18.349 -23.471,2.892 -69.191,20.28 -94.993,31.064 -11.987,5.644 -18.47,14.114 -18.47,23.601 0,2.678 0.513,5.43 1.567,8.219 4.785,12.696 20.578,22.705 38.75,17.463 13.023,-3.75 24.45,-7.118 34.526,-10.094 22.211,-6.549 36.977,-10.905 45.261,-12.388 16.297,-4.991 23.871,-24.413 20.709,-39.516"
             id="path4997" /><path
             style="display:inline;opacity:1;fill:#380000;fill-opacity:1;fill-rule:nonzero;stroke:none;stroke-width:0.999998"
             d="m 383.48341,1535.0606 c -4.563,-0.849 -8.807,-2.435 -12.622,-4.571 1.399,10.364 1.38,25.849 0.765,47.678 -0.233,8.377 -0.439,15.607 -0.187,19.357 0.294,4.388 0.312,13.078 -2.794,22.082 50.346,-9.495 103.229,-21.397 120.606,-25.367 l -4.124,-12.784 c -0.71,0.333 -1.436,0.664 -2.184,0.994 l -0.159,0.065 c -1.67,0.663 -3.311,1.297 -4.934,1.903 l -8.835,3.088 c -50.719,16.502 -80.262,4.104 -90.468,-12.78 -7.527,-12.444 -5.476,-27.361 4.936,-39.665"
             id="path4995" /><path
             style="display:inline;opacity:1;fill:#380000;fill-opacity:1;fill-rule:nonzero;stroke:none;stroke-width:0.999998"
             d="m 499.26841,1558.5966 c 4.496,-6.67 3.778,-13.396 2.938,-21.176 -0.345,-3.218 -0.699,-6.539 -0.699,-10.028 -0.01,-4.487 -1.344,-8.097 -4.077,-11.045 -3.638,-3.918 -9.152,-5.672 -14.748,-4.711 -7.678,1.334 -22.352,5.663 -44.563,12.211 -10.093,2.976 -21.53,6.353 -34.581,10.112 -2.901,0.84 -5.756,1.371 -8.535,1.623 l 0.513,0.598 c -11.763,10.056 -15.289,23.293 -8.984,33.722 9.926,16.428 42.446,24.021 92.717,3.983 11.492,-5.084 16.324,-9.795 20.019,-15.289"
             id="path4993" /><path
             style="display:none;opacity:1;fill:#380000;fill-opacity:1;fill-rule:nonzero;stroke:none;stroke-width:0.999998"
             d="m 494.64541,1628.0266 c 1.713,-0.328 2.629,-1.493 3.023,-2.158 0.735,-1.239 0.896,-2.755 0.443,-4.158 l -5.422,-16.813 c -17.36,3.974 -76.906,17.41 -130.909,27.336 -0.557,0.696 -1.138,1.383 -1.759,2.055 -7.966,8.628 -19.469,13.097 -34.199,13.292 -13.264,0.168 -26.371,2.156 -39.048,4.077 -4.553,0.691 -8.984,1.362 -13.256,1.912 l -6.205,0.679 0.755,11.451 c 0.096,1.472 0.806,2.821 1.946,3.702 0.61,0.473 1.893,1.219 3.604,0.89 z"
             id="path1668-2" /><path
             style="display:inline;fill:#380000;fill-opacity:1;stroke:none;stroke-width:0.75px;stroke-linecap:butt;stroke-linejoin:miter;stroke-opacity:1"
             d="m 195.58944,1614.6146 c -66.64047,-68.8513 -67.37108,-68.8513 -67.37108,-68.8513 l -173.217268,-0.5836 4.03432,-9.2051 H 129.27139 c -3.41143,-12.3646 -0.001,-26.5988 4.179,-41.325 0.0523,14.2246 14.9055,53.5269 14.14617,58.5572 15.4573,16.0831 16.16394,16.2878 24.53367,25.507 0.51662,-0.4602 26.90869,24.1929 25.57665,25.3754 z"
             id="path5017"
             sodipodi:nodetypes="cccccccccc" /></g><g
           id="g5100"
           inkscape:label="cup highlights"
           style="display:inline"><g
             id="g1710"
             style="display:inline"><g
               id="g1712" /><g
               id="g1724"><g
                 clip-path="url(#clipPath1716)"
                 opacity="0.199997"
                 id="g1722"><g
                   transform="translate(1120.3174,1123.8926)"
                   id="g1720"><path
                     d="m 0,0 -7.607,-68.079 c -7.286,1.867 -15.77,4.126 -24.899,6.754 l 8.829,78.869 C -17.268,8.968 -8.783,3.366 0,0"
                     style="fill:#ffffff;fill-opacity:1;fill-rule:nonzero;stroke:none"
                     id="path1718" /></g></g></g></g><g
             id="g1694"
             style="display:inline"><g
               id="g1696" /><g
               id="g1708"
               style="display:inline"><g
                 clip-path="url(#clipPath1700)"
                 opacity="0.199997"
                 id="g1706"
                 style="display:inline"><g
                   transform="translate(1111.4414,1044.6318)"
                   id="g1704"
                   style="display:inline"><path
                     d="m 0,0 -11.227,-100.401 c -9.336,2.213 -17.729,4.288 -24.967,6.132 L -24.898,6.709 C -15.723,4.081 -7.238,1.821 0,0"
                     style="fill:#ffffff;fill-opacity:1;fill-rule:nonzero;stroke:none"
                     id="path1702" /></g></g></g></g><g
             id="g1678"
             style="display:inline"><g
               id="g1680" /><g
               id="g1692"><g
                 clip-path="url(#clipPath1684)"
                 opacity="0.199997"
                 id="g1690"><g
                   transform="translate(1098.9463,933.0723)"
                   id="g1688"><path
                     d="m 0,0 -1.659,-14.823 -25.084,4.795 1.799,16.137 C -17.659,4.266 -9.291,2.19 0,0"
                     style="fill:#ffffff;fill-opacity:1;fill-rule:nonzero;stroke:none"
                     id="path1686" /></g></g></g></g></g><g
           id="g5080"
           inkscape:label="cup"
           style="display:inline"><path
             d="m 1152.916,1092.2852 c -5.44,-0.392 -10.789,-3.159 -15.101,-8.023 -6.016,-6.778 -10.282,-18.328 -7.676,-32.645 -4.334,0.992 -10.328,2.398 -17.429,4.196 -7.285,1.868 -15.77,4.127 -24.898,6.755 -9.429,2.743 -19.528,5.879 -29.717,9.406 -1.408,0.484 -2.79,0.968 -4.173,1.452 -0.669,0.323 -1.384,0.577 -2.121,0.738 l 0.484,7.401 5.371,81.197 c 10.075,1.844 18.513,5.533 23.101,7.838 0.23,-0.415 0.438,-0.669 0.622,-0.738 3.366,-8.507 7.815,-17.152 13.233,-25.544 0.646,-0.991 1.315,-1.959 2.029,-2.882 6.409,-8.576 14.893,-14.178 23.676,-17.544 10.744,-4.127 21.925,-4.887 30.34,-3.666 -0.069,-0.184 -0.161,-0.345 -0.23,-0.53 -2.974,-7.907 -3.136,-18.097 2.489,-27.411"
             style="display:inline;fill:#f54d4c;fill-opacity:1;fill-rule:nonzero;stroke:none"
             id="path1580" /><path
             d="m 1183.9707,915.6895 -2.951,-9.106 c -0.761,-2.352 -3.043,-3.781 -5.303,-3.343 l -78.43,15.009 -25.084,4.794 -17.036,3.251 c -2.259,0.416 -3.85,2.605 -3.689,5.049 l 0.877,13.51 c 5.347,-1.43 12.656,-3.39 21.647,-5.672 7.285,-1.844 15.654,-3.919 24.945,-6.109 23.469,-5.579 52.771,-11.919 85.024,-17.383"
             style="fill:#f54d4c;fill-opacity:1;fill-rule:nonzero;stroke:none"
             id="path1584" /><path
             d="m 1193.8838,946.4209 -6.455,-19.988 c -33.198,5.58 -63.33,12.103 -87.214,17.798 -9.337,2.213 -17.729,4.288 -24.968,6.132 -9.014,2.306 -16.276,4.243 -21.372,5.625 -0.276,0.07 -0.507,0.139 -0.761,0.208 l 6.802,103.375 c 9.176,-3.066 18.19,-5.81 26.627,-8.23 9.176,-2.628 17.66,-4.888 24.899,-6.709 10.905,-2.743 19.02,-4.519 22.455,-5.256 1.291,-2.997 2.858,-6.063 4.796,-9.222 2.397,-3.92 5.555,-7.654 9.474,-11.204 -5.095,-1.683 -9.867,-4.98 -13.347,-9.568 -6.894,-9.152 -6.457,-20.565 1.175,-29.809 9.451,-11.458 20.218,-22.201 40.852,-28.956 l 9.015,-2.536 c 2.536,-0.599 5.209,-1.152 8.022,-1.66"
             style="fill:#f54d4c;fill-opacity:1;fill-rule:nonzero;stroke:none"
             id="path1588" /><path
             d="m 1180.4375,1143.9521 c -4.562,-0.849 -8.807,-2.435 -12.622,-4.571 1.399,10.364 1.381,25.849 0.766,47.678 -0.234,8.377 -0.44,15.607 -0.188,19.357 0.294,4.388 0.313,13.078 -2.794,22.082 50.347,-9.495 103.23,-21.397 120.607,-25.367 l -4.124,-12.783 c -0.71,0.332 -1.437,0.663 -2.185,0.993 l -0.158,0.065 c -1.67,0.663 -3.312,1.297 -4.935,1.903 l -8.835,3.088 c -50.719,16.502 -80.261,4.104 -90.468,-12.78 -7.527,-12.444 -5.475,-27.361 4.936,-39.665"
             style="fill:#f54d4c;fill-opacity:1;fill-rule:nonzero;stroke:none"
             id="path1592" /></g><g
           id="g1129"
           style="display:inline;fill:#624949;fill-opacity:1"
           inkscape:label="hand"><path
             d="m 1040.9111,940.8262 -0.081,-1.226 c -2.566,-0.07 -5.097,-0.104 -7.588,-0.1 -4.162,0.008 -8.23,0.107 -12.173,0.326 -34.796,1.894 -60.944,11.8 -74.936,28.74 -9.105,11.018 -12.351,24.358 -9.133,37.567 0,0 -14.991,-20.423 1.94,-43.508 0.482,-0.657 1.054,-1.251 1.605,-1.857 -70.738,-13.479 -137.25,-24.338 -157.195,-27.538 l -14.646,11.988 1.885,39.935 -21.008,35.747 -1.073,25.457 1.259,1.045 15.812,60.234 -2.985,-0.868 -6.604,38.098 h 170.235 c -4.244,-14.832 4.18,-41.325 4.18,-41.325 0,1.035 0.009,2.202 0.037,3.442 0.308,15.159 2.892,44.768 17.585,59.46 16.94,16.941 30.942,30.812 42.677,42.277 5.755,5.618 10.947,10.634 15.689,15.163 12.072,11.526 21.139,19.791 28.472,26.013 8.62,7.314 26.624,4.59 47.464,1.427 12.389,-1.875 26.428,-4.002 40.327,-4.179 12.071,-0.158 21.307,-3.619 27.473,-10.289 9.469,-10.271 9.254,-25.421 8.955,-29.814 -0.279,-4.198 -0.074,-11.278 0.178,-20.243 0.297,-10.821 0.68,-24.282 0.176,-35.392 -0.746,-16.67 -3.133,-19.674 -3.516,-20.047 -7.389,-4.338 -38.704,-4.804 -53.481,18.031 -15.243,23.555 -22.444,49.992 -17.929,65.785 l -8.965,2.566 c -0.494,-1.717 -0.877,-3.517 -1.147,-5.402 -1.297,-8.899 -0.196,-19.543 3.003,-30.84 -0.035,0.016 -0.033,-0.096 0,-0.301 -5.638,-4.825 -13.886,-7.13 -21.627,-8.176 -2.426,-0.328 -4.799,-0.534 -7.028,-0.653 -7.829,-0.418 -13.846,0.211 -13.846,0.211 v -9.849 c 3.863,-0.81 7.724,-1.128 11.491,-1.088 l -5.737,-86.977 c -0.347,-5.276 3.116,-10.007 8.128,-11.253 0.07,-0.025 0.141,-0.05 0.211,-0.075 z"
             style="fill:#624949;fill-opacity:1;fill-rule:nonzero;stroke:none"
             id="path1600" /><path
             d="m 1266.8936,949.1826 c -5.672,-11.903 -18.713,-20.439 -38.77,-25.355 -9.834,-2.41 -21.238,-3.042 -30.924,-3.447 l 7.89,24.462 c 8.285,-0.91 17.605,-1.407 28.175,-1.407 h 1.986 l -0.055,9.329 h -1.922 c -58.191,0 -75.841,15.494 -90.095,32.762 -6.67,8.078 -3.441,14.888 -0.923,18.227 4.496,5.961 12.388,8.713 17.976,6.279 9.553,-5.85 21.754,-11.195 36.913,-16.166 15.159,-4.963 33.284,-9.553 54.665,-13.891 2.678,-0.541 5.233,-0.793 7.687,-0.793 2.761,0 5.382,0.326 7.845,0.942 2.341,-6.8 5.112,-19.272 -0.448,-30.942"
             style="fill:#624949;fill-opacity:1;fill-rule:nonzero;stroke:none"
             id="path1604" /><path
             d="m 1284.543,1011.5898 c -3.134,-12.621 -13.106,-26.082 -30.877,-22.473 -61.466,12.492 -95.477,27.081 -107.026,45.925 -11.297,18.424 -9.068,34.889 -1.847,43.032 2.854,3.228 6.222,4.926 9.524,4.926 1.372,0 2.734,-0.289 4.039,-0.886 18.461,-8.452 81.784,-34.17 111.56,-37.827 0.737,-0.094 1.465,-0.168 2.174,-0.224 12.472,-4.03 15.727,-19.301 12.453,-32.473"
             style="fill:#624949;fill-opacity:1;fill-rule:nonzero;stroke:none"
             id="path1608" /><path
             d="m 1298.4053,1071.8896 c -1.334,-6.362 -6.67,-20.905 -27.351,-18.35 -23.47,2.892 -69.19,20.281 -94.993,31.064 -11.986,5.644 -18.469,14.115 -18.469,23.602 0,2.677 0.512,5.429 1.567,8.218 4.785,12.696 20.578,22.706 38.75,17.463 13.022,-3.75 24.45,-7.118 34.525,-10.093 22.211,-6.549 36.978,-10.905 45.262,-12.388 16.297,-4.992 23.871,-24.413 20.709,-39.516"
             style="fill:#624949;fill-opacity:1;fill-rule:nonzero;stroke:none"
             id="path1612" /><path
             d="m 1296.2227,1167.4883 c 4.496,-6.67 3.778,-13.396 2.938,-21.176 -0.344,-3.219 -0.699,-6.539 -0.699,-10.028 -0.01,-4.487 -1.343,-8.097 -4.077,-11.045 -3.638,-3.918 -9.151,-5.672 -14.748,-4.711 -7.678,1.334 -22.352,5.663 -44.562,12.211 -10.094,2.976 -21.531,6.353 -34.581,10.112 -2.902,0.84 -5.756,1.371 -8.536,1.623 l 0.513,0.597 c -11.763,10.057 -15.289,23.294 -8.983,33.723 9.925,16.427 42.445,24.021 92.716,3.983 11.493,-5.084 16.325,-9.795 20.019,-15.289"
             style="fill:#624949;fill-opacity:1;fill-rule:nonzero;stroke:none"
             id="path1616" /></g><g
           id="g1726"
           style="display:inline"><g
             id="g1728" /><g
             id="g1740"><g
               clip-path="url(#clipPath1732)"
               opacity="0.199997"
               id="g1738"><g
                 transform="translate(1136.2939,1266.6211)"
                 id="g1736"><path
                   d="m 0,0 -1.291,-11.458 c -3.78,0.807 -7.861,1.245 -12.219,1.314 -4.426,0.046 -8.829,0.3 -13.186,0.715 l 1.591,14.224 z"
                   style="fill:#ffffff;fill-opacity:1;fill-rule:nonzero;stroke:none"
                   id="path1734" /></g></g></g></g><g
           id="g1136"
           inkscape:label="liquid"
           style="display:inline"><path
             d="m 1374.5938,1266.2612 c -17.929,6.365 -48.381,-19.388 -48.381,-19.388 53.779,-8.339 66.309,13.024 48.381,19.388"
             style="display:none;fill:#ffc400;fill-opacity:1;fill-rule:nonzero;stroke:none"
             id="path1676" /><path
             d="m 1308.4932,1345.9385 c -18.739,-3.284 -32.57,-40.689 -32.57,-40.689 50.918,19.21 51.309,43.973 32.57,40.689"
             style="fill:#ffc400;fill-opacity:1;fill-rule:nonzero;stroke:none"
             id="path1672" /><path
             id="path1742"
             style="display:inline;opacity:1;fill:#ffc400;fill-opacity:1;stroke:none;stroke-width:1px;stroke-linecap:butt;stroke-linejoin:miter;stroke-opacity:1"
             inkscape:label="liquid"
             d="m 1663.0039,916.5957 c -15.183,0.35015 -32.9974,8.00948 -44.0156,18.01368 -22.0111,19.98506 -27.4506,32.37789 -49.5331,38.85042 l 143.6129,28.0321 c 38.1202,-7.43111 53.9784,-27.97083 47.8225,-51.4587 -8.3825,-23.22946 -32.4124,-24.63099 -69.6601,-7.59179 -0.4914,-19.23574 -13.0436,-26.19586 -28.2266,-25.84571 z m -16.4648,10.49414 c 1.14,0.0335 2.0244,0.36855 2.498,1.03125 1.2629,1.7672 -2.8024,5.64143 -5.5996,7.39063 -2.7971,1.74933 -8.7672,3.59319 -10.0664,1.54492 -1.2992,-2.04827 1.9049,-5.40886 6.0605,-7.76953 2.5973,-1.47542 5.2074,-2.25307 7.1075,-2.19727 z m 97.9257,38.78125 c 1.9362,6.4e-4 3.4948,0.47972 4.2461,1.66797 2.4042,3.8024 -4.9036,10.14589 -9.8808,13.09375 -4.9772,2.94774 -15.1971,7.09264 -17.918,2.87891 -2.7211,-4.2136 4.9444,-10.06066 9.8379,-13.1836 3.3643,-2.14701 9.4554,-4.45843 13.7148,-4.45703 z"
             transform="matrix(0.75000002,0,0,-0.75000002,0,2000.0001)"
             sodipodi:nodetypes="ssccccsssssssssssss" /></g></g></g><g
       aria-label="PARTY"
       transform="scale(1,-1)"
       id="text2550"
       style="font-style:normal;font-weight:normal;font-size:350px;line-height:1.25;font-family:sans-serif;display:inline;fill:#f54d4c;fill-opacity:1;stroke:none;stroke-width:0.75"><path
         d="m 593.42889,-1427.9469 v -101.5 h 39.9 q 10.5,0 19.25,3.85 8.75,3.5 15.4,10.15 6.65,6.3 10.15,15.75 3.85,9.1 3.85,20.65 0,11.2 -3.85,20.65 -3.5,9.45 -10.15,16.45 -6.65,6.65 -15.4,10.5 -8.75,3.5 -19.25,3.5 z m 21.35,-23.45 h 18.55 q 11.55,0 19.6,-6.3 8.4,-6.65 8.4,-21.35 0,-14.7 -8.4,-20.65 -8.05,-6.3 -19.6,-6.3 h -18.55 z m -54.25,-114.8 h 67.55 q 19.95,0 35.7,6.65 16.1,6.3 26.95,17.85 11.2,11.55 17.15,27.65 5.95,16.1 5.95,35.35 0,19.25 -5.95,35.35 -5.95,15.75 -17.15,27.3 -10.85,11.55 -26.95,18.2 -15.75,6.3 -36.05,6.3 h -12.95 v 58.8 h -21.35 v -82.25 h 34.3 q 14.7,0 26.6,-4.55 12.25,-4.9 20.65,-13.3 8.75,-8.75 13.3,-20.3 4.9,-11.9 4.9,-25.9 0,-14.35 -4.9,-25.9 -4.55,-11.9 -12.95,-20.3 -8.4,-8.4 -20.65,-12.95 -11.9,-4.55 -26.6,-4.55 h -46.55 v 210 h -21 z"
         style="font-style:normal;font-variant:normal;font-weight:normal;font-stretch:normal;font-size:350px;font-family:'Street Cred';-inkscape-font-specification:'Street Cred';fill:#f54d4c;fill-opacity:1;stroke-width:0.75"
         id="path231" /><path
         d="m 852.07804,-1557.7969 q 9.8,-11.9 25.55,-11.9 11.55,0 17.5,7.35 5.95,7 5.95,17.5 v 212.1 h -21 v -209.3 q 0,-4.9 -4.2,-4.9 -1.75,0 -3.5,0.7 -1.75,0.7 -4.2,3.5 l -185.85,210 h -29.4 z m -4.9,92.4 -43.75,51.45 h 43.75 z m 21,88.2 v 44.45 h -21 v -21 h -98 l -18.9,21 h -30.1 l 39.55,-44.45 z m -116.2,-13.3 116.2,-131.6 v 131.6 z"
         style="font-style:normal;font-variant:normal;font-weight:normal;font-stretch:normal;font-size:350px;font-family:'Street Cred';-inkscape-font-specification:'Street Cred';fill:#f54d4c;fill-opacity:1;stroke-width:0.75"
         id="path233" /><path
         d="m 1116.3276,-1332.7469 h -30.45 l -74.55,-82.6 q 33.6,-5.95 48.65,-22.4 15.4,-16.45 15.4,-42.35 0,-12.95 -4.55,-24.5 -4.55,-11.55 -12.95,-19.95 -8.05,-8.4 -19.6,-13.3 -11.2,-4.9 -24.85,-4.9 h -58.45004 v 210 h -21.35 v -233.45 h 80.50004 q 18.9,0 33.95,6.3 15.4,5.95 26.25,17.5 10.85,11.2 16.8,27.3 5.95,16.1 5.95,36.05 0,16.1 -3.85,28 -3.5,11.55 -10.15,20.3 -6.3,8.4 -15.05,14.35 -8.75,5.6 -18.9,9.8 z m -128.45004,-108.5 q 2.45,-3.85 7.7,-5.95 5.25004,-2.1 16.10004,-2.8 29.75,-1.75 29.75,-29.4 0,-10.85 -7,-18.55 -6.65,-8.05 -21,-8.05 h -25.55004 z m 78.75004,108.5 h -28 l -50.75004,-59.15 v 59.15 h -21.35 v -196.7 h 47.25004 q 9.8,0 18.55,3.85 9.1,3.85 15.75,10.5 6.65,6.65 10.5,15.75 3.85,9.1 3.85,19.95 0,19.95 -14,34.3 -14,14.35 -42.7,17.15 -5.95004,0.7 -8.75004,3.5 -2.8,2.8 -2.8,6.3 0,4.9 4.2,9.8 z"
         style="font-style:normal;font-variant:normal;font-weight:normal;font-stretch:normal;font-size:350px;font-family:'Street Cred';-inkscape-font-specification:'Street Cred';fill:#f54d4c;fill-opacity:1;stroke-width:0.75"
         id="path235" /><path
         d="m 1258.0772,-1566.1969 v 23.45 h -150.15 v -23.45 z m -68.95,36.75 h 68.95 v 23.45 h -47.95 v 173.6 h -21 z m -32.9,23.45 h -48.3 v -23.45 h 69.3 v 197.05 h -21 z"
         style="font-style:normal;font-variant:normal;font-weight:normal;font-stretch:normal;font-size:350px;font-family:'Street Cred';-inkscape-font-specification:'Street Cred';fill:#f54d4c;fill-opacity:1;stroke-width:0.75"
         id="path237" /><path
         d="m 1292.0265,-1566.1969 57.05,136.15 -37.1,97.3 h -22.4 l 36.75,-96.25 -57.4,-137.2 z m 55.3,233.45 h -22.05 l 88.9,-233.45 h 22.05 z m 7.7,-113.05 -50.4,-120.4 h 22.75 l 26.6,64.05 24.85,-64.05 h 22.75 z"
         style="font-style:normal;font-variant:normal;font-weight:normal;font-stretch:normal;font-size:350px;font-family:'Street Cred';-inkscape-font-specification:'Street Cred';fill:#f54d4c;fill-opacity:1;stroke-width:0.75"
         id="path239" /></g><g
       aria-label="PUNCH"
       transform="scale(1,-1)"
       id="text1049"
       style="font-style:normal;font-weight:normal;font-size:350px;line-height:1.25;font-family:sans-serif;display:inline;fill:#f54d4c;fill-opacity:1;stroke:none;stroke-width:0.75"><path
         d="m 579.08398,-507.67339 v -101.5 h 39.9 q 10.5,0 19.25,3.85 8.75,3.5 15.4,10.15 6.65,6.3 10.15,15.75 3.85,9.1 3.85,20.65 0,11.2 -3.85,20.65 -3.5,9.45 -10.15,16.45 -6.65,6.65 -15.4,10.5 -8.75,3.5 -19.25,3.5 z m 21.35,-23.45 h 18.55 q 11.55,0 19.6,-6.3 8.4,-6.65 8.4,-21.35 0,-14.7 -8.4,-20.65 -8.05,-6.3 -19.6,-6.3 h -18.55 z m -54.25,-114.8 h 67.55 q 19.95,0 35.7,6.65 16.1,6.3 26.95,17.85 11.2,11.55 17.15,27.65 5.95,16.1 5.95,35.35 0,19.25 -5.95,35.35 -5.95,15.75 -17.15,27.3 -10.85,11.55 -26.95,18.2 -15.75,6.3 -36.05,6.3 h -12.95 v 58.8 h -21.35 v -82.25 h 34.3 q 14.7,0 26.6,-4.55 12.25,-4.9 20.65,-13.3 8.75,-8.75 13.3,-20.3 4.9,-11.9 4.9,-25.9 0,-14.35 -4.9,-25.9 -4.55,-11.9 -12.95,-20.3 -8.4,-8.4 -20.65,-12.95 -11.9,-4.55 -26.6,-4.55 h -46.55 v 210 h -21 z"
         style="font-style:normal;font-variant:normal;font-weight:normal;font-stretch:normal;font-size:350px;font-family:'Street Cred';-inkscape-font-specification:'Street Cred';fill:#f54d4c;fill-opacity:1;stroke-width:0.75"
         id="path220" /><path
         d="m 890.93331,-506.97339 q 0,22.75 -6.3,40.95 -5.95,17.85 -17.5,30.45 -11.2,12.6 -27.3,19.6 -16.1,6.65 -36.05,6.65 -19.95,0 -36.05,-6.65 -16.1,-7 -27.65,-19.6 -11.2,-12.6 -17.5,-30.45 -5.95,-18.2 -5.95,-40.95 v -138.95 h 21 v 138.95 q 0,18.9 5.25,32.9 5.25,14 14,23.45 9.1,9.1 21,13.65 12.25,4.2 25.9,4.2 13.65,0 25.55,-4.2 11.9,-4.55 20.65,-13.65 9.1,-9.45 14.35,-23.45 5.25,-14 5.25,-32.9 v -138.95 h 21.35 z m -33.25,0 q 0,15.75 -4.2,27.3 -4.2,11.55 -11.55,19.25 -7.35,7.35 -17.15,10.85 -9.8,3.5 -21,3.5 -11.2,0 -21.35,-3.5 -9.8,-3.5 -17.15,-10.85 -7.35,-7.7 -11.55,-19.25 -4.2,-11.55 -4.2,-27.3 v -138.95 h 21 v 138.95 q 0,20.65 9.1,30.45 9.45,9.45 24.15,9.45 14.7,0 23.8,-9.45 9.1,-9.8 9.1,-30.45 v -138.95 h 21 z"
         style="font-style:normal;font-variant:normal;font-weight:normal;font-stretch:normal;font-size:350px;font-family:'Street Cred';-inkscape-font-specification:'Street Cred';fill:#f54d4c;fill-opacity:1;stroke-width:0.75"
         id="path222" /><path
         d="m 972.13321,-536.02339 v 123.55 h -21.35 v -188.3 l 114.09999,162.75 q 2.8,4.9 7,4.9 4.55,0 4.55,-7.7 v -205.1 h 21.35 v 203.7 q 0,14.7 -5.6,23.8 -5.6,9.1 -17.85,9.1 -9.8,0 -15.4,-3.15 -5.25,-3.5 -9.45,-9.45 z m 71.39999,16.1 v -126 h 21 v 185.85 l -113.39999,-162.05 q -2.45,-3.5 -6.3,-3.5 -2.8,0 -4.2,2.1 -1.4,1.75 -1.4,4.2 v 206.85 h -21 v -206.15 q 0,-13.3 6.3,-22.05 6.65,-8.75 18.2,-8.75 16.1,0 23.45,10.85 z"
         style="font-style:normal;font-variant:normal;font-weight:normal;font-stretch:normal;font-size:350px;font-family:'Street Cred';-inkscape-font-specification:'Street Cred';fill:#f54d4c;fill-opacity:1;stroke-width:0.75"
         id="path224" /><path
         d="m 1225.8826,-412.47339 q -23.1,0 -42.7,-8.4 -19.25,-8.75 -33.25,-24.15 -14,-15.4 -22.05,-36.75 -7.7,-21.7 -7.7,-47.6 0,-25.9 7.7,-47.25 8.05,-21.35 22.05,-36.75 14,-15.4 33.25,-23.8 19.6,-8.75 42.7,-8.75 h 38.15 v 23.45 h -38.15 q -18.55,0 -34.3,6.65 -15.4,6.65 -26.95,18.9 -11.2,12.25 -17.5,29.4 -6.3,17.15 -6.3,38.15 0,21 6.3,38.5 6.3,17.15 17.5,29.4 11.55,12.25 26.95,18.9 15.75,6.65 34.3,6.65 h 38.15 v 23.45 z m 0,-36.75 q -15.4,0 -29.05,-5.6 -13.3,-5.6 -23.1,-15.75 -9.8,-10.5 -15.4,-25.2 -5.6,-15.05 -5.6,-33.6 0,-18.2 5.6,-32.9 5.6,-15.05 15.4,-25.2 9.8,-10.5 23.1,-16.1 13.65,-5.6 29.05,-5.6 h 38.15 v 23.45 h -38.15 q -23.1,0 -37.8,14 -14.35,14 -14.35,42.35 0,28.35 14.35,42.7 14.7,14 37.8,14 h 38.15 v 23.45 z"
         style="font-style:normal;font-variant:normal;font-weight:normal;font-stretch:normal;font-size:350px;font-family:'Street Cred';-inkscape-font-specification:'Street Cred';fill:#f54d4c;fill-opacity:1;stroke-width:0.75"
         id="path226" /><path
         d="m 1447.7824,-412.47339 h -21.35 v -233.45 h 21.35 z m -32.9,-123.9 h -94.85 v -109.55 h 21 v 86.1 h 52.5 v -86.1 h 21.35 z m -94.85,13.3 h 94.85 v 110.6 h -21.35 v -87.15 h -52.5 v 87.15 h -21 z m -33.25,-122.85 h 21.35 v 233.45 h -21.35 z"
         style="font-style:normal;font-variant:normal;font-weight:normal;font-stretch:normal;font-size:350px;font-family:'Street Cred';-inkscape-font-specification:'Street Cred';fill:#f54d4c;fill-opacity:1;stroke-width:0.75"
         id="path228" /></g></g></svg>
