<?xml version="1.0" encoding="UTF-8" standalone="no"?>
<svg
   xmlns:dc="http://purl.org/dc/elements/1.1/"
   xmlns:cc="http://creativecommons.org/ns#"
   xmlns:rdf="http://www.w3.org/1999/02/22-rdf-syntax-ns#"
   xmlns:svg="http://www.w3.org/2000/svg"
   xmlns="http://www.w3.org/2000/svg"
   xmlns:sodipodi="http://sodipodi.sourceforge.net/DTD/sodipodi-0.dtd"
   xmlns:inkscape="http://www.inkscape.org/namespaces/inkscape"
   viewBox="0 0 2667 2667"
   width="2667"
   height="2667"
   version="1.1"
   id="svg1203"
   sodipodi:docname="pp_logo.svg"
   inkscape:version="1.0.2 (e86c870879, 2021-01-15)">
  <metadata
     id="metadata1207">
    <rdf:RDF>
      <cc:Work
         rdf:about="">
        <dc:format>image/svg+xml</dc:format>
        <dc:type
           rdf:resource="http://purl.org/dc/dcmitype/StillImage" />
      </cc:Work>
    </rdf:RDF>
  </metadata>
  <sodipodi:namedview
     pagecolor="#ffffff"
     bordercolor="#666666"
     borderopacity="1"
     objecttolerance="10"
     gridtolerance="10"
     guidetolerance="10"
     inkscape:pageopacity="0"
     inkscape:pageshadow="2"
     inkscape:window-width="2560"
     inkscape:window-height="1581"
     id="namedview1205"
     showgrid="false"
     inkscape:zoom="0.50581177"
     inkscape:cx="1333.5"
     inkscape:cy="1412.5808"
     inkscape:window-x="0"
     inkscape:window-y="19"
     inkscape:window-maximized="0"
     inkscape:current-layer="svg1203"
     inkscape:document-rotation="0" />
  <defs
     id="defs1069">
    <clipPath
       clipPathUnits="userSpaceOnUse"
       id="cp1">
      <path
         d="M-431.7 100.94L2234.97 100.94L2234.97 2767.61L-431.7 2767.61L-431.7 100.94Z"
         id="path1039" />
    </clipPath>
    <clipPath
       clipPathUnits="userSpaceOnUse"
       id="cp2">
      <path
         d="M997.9 1515.37L1033.57 1515.37L1033.57 1543.28L997.9 1543.28L997.9 1515.37Z"
         id="path1042" />
    </clipPath>
    <clipPath
       clipPathUnits="userSpaceOnUse"
       id="cp3">
      <path
         d="M1001.97 1365.82L1050.22 1365.82L1050.22 1508.63L1001.97 1508.63L1001.97 1365.82Z"
         id="path1045" />
    </clipPath>
    <clipPath
       clipPathUnits="userSpaceOnUse"
       id="cp4">
      <path
         d="M1018.72 1245.69L1062.06 1245.69L1062.06 1359.86L1018.72 1359.86L1018.72 1245.69Z"
         id="path1048" />
    </clipPath>
    <clipPath
       clipPathUnits="userSpaceOnUse"
       id="cp5">
      <path
         d="M1047.77 1072.38L1083.36 1072.38L1083.36 1094.06L1047.77 1094.06L1047.77 1072.38Z"
         id="path1051" />
    </clipPath>
    <clipPath
       clipPathUnits="userSpaceOnUse"
       id="cp6">
      <path
         d="M3093.33 100.94L426.66 100.94L426.66 2767.61L3093.33 2767.61L3093.33 100.94Z"
         id="path1054" />
    </clipPath>
    <clipPath
       clipPathUnits="userSpaceOnUse"
       id="cp7">
      <path
         d="M1659.66 1365.82L1611.41 1365.82L1611.41 1508.63L1659.66 1508.63L1659.66 1365.82Z"
         id="path1057" />
    </clipPath>
    <clipPath
       clipPathUnits="userSpaceOnUse"
       id="cp8">
      <path
         d="M1642.91 1245.69L1599.57 1245.69L1599.57 1359.86L1642.91 1359.86L1642.91 1245.69Z"
         id="path1060" />
    </clipPath>
    <clipPath
       clipPathUnits="userSpaceOnUse"
       id="cp9">
      <path
         d="M1613.86 1072.38L1578.27 1072.38L1578.27 1094.06L1613.86 1094.06L1613.86 1072.38Z"
         id="path1063" />
    </clipPath>
    <clipPath
       clipPathUnits="userSpaceOnUse"
       id="cp10">
      <path
         d="M1663.73 1515.37L1628.06 1515.37L1628.06 1543.28L1663.73 1543.28L1663.73 1515.37Z"
         id="path1066" />
    </clipPath>
  </defs>
  <style
     id="style1071">
		tspan { white-space:pre }
		.shp0 { fill: none } 
		.shp1 { fill: #ffffff } 
		.shp2 { fill: #380000 } 
		.txt3 { font-size: 350px;fill: #380000;font-weight: 400;font-family: &quot;StreetCred-Regular&quot;, &quot;Street Cred&quot; } 
	</style>
  <g
     id="g1526"
     style="opacity:1">
    <g
       id="g1530">
      <g
         id="Clip-Path: g1532"
         clip-path="url(#cp1)">
        <g
           id="g1532">
          <g
             id="g1411">
            <path
               id="path1580"
               class="shp0"
               d="m 1105.52,1311.23 c -7.25,0.52 -14.38,4.21 -20.13,10.7 -8.02,9.03 -13.71,24.43 -10.23,43.52 -5.78,-1.32 -13.78,-3.2 -23.24,-5.59 -9.72,-2.49 -21.03,-5.51 -33.2,-9.01 -12.57,-3.66 -26.04,-7.84 -39.62,-12.54 -1.88,-0.65 -3.72,-1.29 -5.57,-1.94 -0.89,-0.43 -1.84,-0.77 -2.83,-0.98 l 0.65,-9.87 7.16,-108.26 c 13.43,-2.46 24.69,-7.38 30.8,-10.45 0.31,0.55 0.59,0.89 0.83,0.98 4.49,11.34 10.42,22.87 17.65,34.06 0.86,1.32 1.75,2.61 2.7,3.84 8.55,11.44 19.86,18.91 31.57,23.4 14.32,5.5 29.23,6.51 40.45,4.88 -0.09,0.25 -0.21,0.46 -0.3,0.71 -3.97,10.54 -4.19,24.13 3.31,36.55" />
            <path
               id="path1584"
               class="shp0"
               d="m 1146.93,1546.69 -3.93,12.14 c -1.02,3.14 -4.06,5.04 -7.07,4.46 l -104.58,-20.01 -33.44,-6.4 -22.72,-4.33 c -3.01,-0.56 -5.13,-3.47 -4.92,-6.73 l 1.17,-18.02 c 7.13,1.91 16.88,4.52 28.87,7.57 9.71,2.45 20.87,5.22 33.26,8.14 31.29,7.44 70.36,15.89 113.36,23.18" />
            <path
               id="path1588"
               class="shp0"
               d="m 1160.15,1505.71 -8.61,26.65 c -44.26,-7.44 -84.44,-16.13 -116.28,-23.73 -12.45,-2.95 -23.64,-5.71 -33.29,-8.17 -12.02,-3.08 -21.71,-5.66 -28.5,-7.5 -0.37,-0.1 -0.68,-0.19 -1.02,-0.28 l 9.07,-137.83 c 12.24,4.08 24.26,7.74 35.51,10.97 12.23,3.5 23.54,6.52 33.2,8.95 14.54,3.65 25.36,6.02 29.94,7 1.72,4 3.81,8.09 6.39,12.3 3.2,5.23 7.41,10.2 12.63,14.94 -6.79,2.24 -13.15,6.64 -17.79,12.76 -9.2,12.2 -8.61,27.42 1.56,39.74 12.6,15.28 26.96,29.6 54.47,38.61 l 12.02,3.38 c 3.38,0.8 6.95,1.54 10.7,2.21 z" />
            <path
               id="path1592"
               class="shp0"
               d="m 1142.22,1242.34 c -6.08,1.13 -11.74,3.25 -16.83,6.09 1.87,-13.82 1.84,-34.46 1.02,-63.57 -0.31,-11.17 -0.58,-20.81 -0.25,-25.81 0.39,-5.85 0.42,-17.43 -3.72,-29.44 67.13,12.66 137.64,28.53 160.81,33.82 l -5.5,17.05 c -0.95,-0.45 -1.92,-0.89 -2.92,-1.33 l -0.21,-0.08 c -2.22,-0.89 -4.41,-1.73 -6.58,-2.54 l -11.78,-4.12 c -67.62,-22 -107.01,-5.47 -120.62,17.04 -10.04,16.59 -7.3,36.48 6.58,52.89" />
          </g>
          <g
             id="g1129"
             style="display:inline">
            <path
               id="path1600"
               class="shp0"
               d="m 956.18,1513.17 -0.1,1.64 c -3.42,0.09 -6.8,0.14 -10.12,0.13 -5.55,-0.01 -10.97,-0.14 -16.23,-0.43 -46.4,-2.53 -81.26,-15.74 -99.92,-38.32 -12.14,-14.69 -16.46,-32.48 -12.17,-50.09 0,0 -19.99,27.23 2.58,58.01 0.65,0.87 1.41,1.67 2.14,2.47 -94.31,17.98 -183,32.45 -209.59,36.72 l -19.53,-15.98 2.52,-53.25 -28.02,-47.66 -1.43,-33.94 1.68,-1.4 21.09,-80.31 -3.98,1.16 -8.81,-50.8 h 226.98 c -5.66,19.78 5.57,55.1 5.57,55.1 0,-1.38 0.02,-2.94 0.05,-4.59 0.41,-20.21 3.86,-59.69 23.45,-79.28 22.59,-22.59 41.26,-41.08 56.9,-56.37 7.68,-7.49 14.6,-14.18 20.92,-20.22 16.1,-15.36 28.19,-26.38 37.96,-34.68 11.5,-9.75 35.5,-6.12 63.29,-1.9 16.52,2.5 35.24,5.33 53.77,5.57 16.09,0.21 28.41,4.82 36.63,13.72 12.62,13.69 12.34,33.89 11.94,39.75 -0.37,5.6 -0.1,15.04 0.24,26.99 0.39,14.43 0.9,32.38 0.23,47.19 -0.99,22.23 -4.18,26.23 -4.69,26.73 -9.85,5.78 -51.6,6.4 -71.31,-24.04 -20.32,-31.41 -29.92,-66.66 -23.9,-87.72 l -11.95,-3.42 c -0.66,2.29 -1.17,4.69 -1.53,7.21 -1.73,11.86 -0.26,26.05 4,41.12 -0.05,-0.03 -0.04,0.12 0,0.4 -7.52,6.43 -18.51,9.5 -28.84,10.9 -3.23,0.44 -6.39,0.71 -9.37,0.87 -10.43,0.56 -18.46,-0.28 -18.46,-0.28 v 13.13 c 5.15,1.08 10.3,1.5 15.32,1.45 l -7.65,115.97 c -0.46,7.03 4.16,13.34 10.84,15 0.1,0.04 0.19,0.07 0.28,0.1 z" />
            <path
               id="path1604"
               class="shp0"
               d="m 1257.49,1502.03 c -7.56,15.87 -24.95,27.25 -51.69,33.81 -13.11,3.21 -28.32,4.05 -41.23,4.59 l 10.52,-32.61 c 11.05,1.21 23.47,1.87 37.57,1.87 h 2.64 l -0.07,-12.43 h -2.56 c -77.59,0 -101.12,-20.66 -120.13,-43.69 -8.89,-10.77 -4.59,-19.85 -1.23,-24.3 6,-7.95 16.52,-11.62 23.97,-8.37 12.74,7.8 29,14.92 49.22,21.55 20.21,6.62 44.37,12.74 72.88,18.52 3.57,0.73 6.98,1.06 10.25,1.06 3.68,0 7.18,-0.43 10.46,-1.25 3.12,9.06 6.82,25.69 -0.6,41.25" />
            <path
               id="path1608"
               class="shp0"
               d="m 1281.03,1418.82 c -4.18,16.83 -17.48,34.78 -41.17,29.97 -81.96,-16.66 -127.3,-36.11 -142.7,-61.24 -15.07,-24.56 -12.09,-46.52 -2.47,-57.37 3.81,-4.31 8.3,-6.57 12.7,-6.57 1.83,0 3.65,0.38 5.39,1.18 24.61,11.27 109.04,45.56 148.74,50.44 0.99,0.12 1.96,0.22 2.9,0.29 16.63,5.38 20.97,25.74 16.61,43.3" />
            <path
               id="path1612"
               class="shp0"
               d="m 1299.51,1338.42 c -1.78,8.48 -8.89,27.88 -36.47,24.47 -31.29,-3.86 -92.25,-27.04 -126.66,-41.42 -15.98,-7.53 -24.62,-18.82 -24.62,-31.47 0,-3.57 0.68,-7.24 2.09,-10.96 6.38,-16.92 27.44,-30.27 51.67,-23.28 17.36,5 32.6,9.49 46.03,13.46 29.61,8.73 49.3,14.54 60.35,16.51 21.73,6.66 31.83,32.55 27.61,52.69" />
            <path
               id="path1616"
               class="shp0"
               d="m 1296.6,1210.96 c 5.99,8.89 5.04,17.86 3.92,28.23 -0.46,4.29 -0.93,8.72 -0.93,13.37 -0.02,5.98 -1.8,10.8 -5.44,14.73 -4.85,5.22 -12.2,7.56 -19.66,6.28 -10.24,-1.78 -29.81,-7.55 -59.42,-16.28 -13.46,-3.97 -28.71,-8.47 -46.11,-13.48 -3.87,-1.12 -7.67,-1.83 -11.38,-2.17 l 0.68,-0.79 c -15.68,-13.41 -20.38,-31.06 -11.97,-44.97 13.23,-21.9 56.59,-32.03 123.62,-5.31 15.32,6.78 21.76,13.06 26.69,20.39 z" />
          </g>
          <g
             id="g1162"
             style="display:inline">
            <path
               id="path1620"
               class="shp2"
               d="m 493.09,1344.19 -79.16,-12.81 32.59,31.9 z" />
            <path
               id="path1624"
               class="shp2"
               d="m 575.17,1722.56 11.73,-48.95 -56.67,56.74 z" />
            <path
               id="path1628"
               class="shp2"
               d="m 429.11,1117.46 3.38,45.48 47.58,16.44 z" />
            <path
               id="path1632"
               class="shp2"
               d="m 671.39,932.84 -30.67,33.76 20.82,45.82 z" />
            <path
               id="path1636"
               class="shp2"
               d="m 884.72,1008.67 -11.77,48.94 56.71,-56.7 z" />
            <path
               id="path1640"
               class="shp2"
               d="m 550.56,978.51 -10.32,20.34 16.1,19.34 z" />
            <path
               id="path1644"
               class="shp2"
               d="m 391.97,1239.54 9.19,20.87 25.16,-0.2 z" />
            <path
               id="path1648"
               class="shp2"
               d="m 441.65,1483.49 21.63,7.25 16.79,-18.75 z" />
            <path
               id="path1652"
               class="shp2"
               d="m 495.51,1623.97 16.79,-18.75 -38.42,11.5 z" />
            <path
               id="path1656"
               class="shp2"
               d="m 685.63,1771.42 14.58,-17.53 -11.4,-22.44 z" />
            <path
               id="path1660"
               class="shp2"
               d="m 894.49,1756.97 2.32,-45.55 -45.15,-22.25 z" />
            <path
               id="path1664"
               class="shp2"
               d="m 930.57,1602.54 38.28,11.93 -13.88,-18.09 z" />
          </g>
          <g
             id="g1666"
             style="display:inline">
            <path
               id="path1668"
               fill-rule="evenodd"
               class="shp2"
               d="m 1282.52,1101.72 10.71,2.05 c 5.85,1.12 10.97,4.73 14.04,9.91 3.15,5.31 3.86,11.76 1.95,17.69 l -18.25,56.55 c 6.61,4.55 11.64,9.69 15.95,16.1 8.52,12.65 7.17,25.32 5.97,36.5 -0.44,4.14 -0.87,8.06 -0.87,12.07 -0.02,9.13 -2.96,16.91 -8.77,23.17 -2.97,3.21 -6.54,5.73 -10.44,7.51 16.55,14.04 22.98,38.07 18.88,57.7 -2.88,13.75 -11.62,27.46 -27.88,32.62 11.04,12.05 13.52,31.21 9.3,48.24 -3.45,13.86 -11.47,26.87 -23.5,34.16 4.03,11.23 8.57,31.54 -0.88,51.39 -9.26,19.4 -29.43,33.05 -59.97,40.54 -15.62,3.83 -34.05,4.56 -47.51,5.1 l -0.75,0.02 -3.34,10.37 c -2.9,8.97 -11.17,14.86 -20.16,14.86 -1.28,0 -2.58,-0.12 -3.88,-0.36 l -160.71,-30.74 c -9.61,-1.84 -16.56,-10.18 -17,-19.91 -2.93,0.08 -5.83,0.13 -8.69,0.13 -1.22,0 -2.41,-0.01 -3.61,-0.03 l -5.03,9.52 c -19.39,36.77 -54.33,62.84 -95.11,70.95 l 21.75,15.34 -6.59,28.04 19.11,21.68 -32.29,-19.57 3.3,-24.33 -26.36,-21.69 -20.43,9.52 2.63,19.57 -13.84,19.05 13.84,31.21 -25.7,-27.51 12.52,-20.1 -1.97,-19.57 -31.63,-6.35 -0.66,23.27 -27.68,61.9 5.27,20.1 -17.79,-14.28 21.08,-52.9 -5.93,-32.8 -44.81,-6.88 -21.09,43.91 -0.65,20.63 -17.8,-6.88 -17.79,22.22 15.16,26.98 -29,-26.45 12.52,-21.16 -22.4,-3.17 43.49,-5.82 11.86,-24.87 3.3,-43.38 -45.47,-29.62 -11.87,12.17 11.87,34.38 -65.25,20.1 -15.81,37.04 2.64,-40.74 52.71,-29.62 -7.24,-19.05 25.7,-34.91 -34.27,-28.04 -30.97,4.76 -0.66,26.45 -30.98,17.46 14.5,-41.26 -39.54,-13.76 42.18,6.88 45.47,-15.87 1.98,-41.79 -16.48,-28.04 -26.36,21.69 15.82,-26.45 -1.32,-31.21 -38.22,18.51 3.29,19.58 -40.86,22.21 25.05,-27.5 -15.16,-34.39 -25.04,0.53 21.09,-10.58 28.33,15.87 44.15,-36.42 12.53,-47.69 -47.45,13.75 -65.24,-47.08 67.88,23.28 46.12,-19.05 -7.24,-41.79 -47.45,-5.29 h -45.47 l 34.92,-12.7 44.16,4.76 13.84,-14.81 -5.28,-25.92 -39.54,-6.35 -28.33,-15.34 -1.98,-34.91 -17.79,-17.46 27.68,10.58 8.56,36.5 20.43,14.29 47.45,-2.65 12.52,-33.86 -40.86,-8.99 -5.93,-24.33 15.82,-35.45 -34.27,-19.04 55.35,22.75 -12.52,9.52 -8.56,35.97 45.47,8.99 41.51,-41.79 -30.97,-23.8 5.93,-25.4 -21.09,-11.63 33.61,-43.91 -15.81,37.56 14.5,12.16 v 31.74 l 21.08,8.47 30.32,27.51 22.4,-14.28 -22.4,-17.99 22.4,-20.63 -6.59,26.98 25.7,8.99 13.18,-16.4 v -30.15 l -5.27,-7.41 19.11,-22.75 -5.93,27.51 8.57,15.87 -12.52,23.81 36.9,11.11 6.59,-11.11 1.32,-21.69 -7.91,-10.05 11.2,-12.7 -3.29,-22.75 15.16,24.87 -6.59,15.34 5.93,12.69 -5.93,12.17 13.83,25.92 h 29 l 10.54,-23.27 -19.77,-20.64 30.98,-21.16 -1.32,-11.1 17.13,-9.53 -7.9,12.17 -0.66,16.93 -21.09,10.58 10.54,14.81 v 15.34 l 15.82,24.34 37.56,-2.12 9.89,-11.11 9.22,-19.57 -0.66,21.69 -10.54,19.57 -24.38,3.7 -3.96,17.99 7.86,-0.21 c 21.4,-20.68 36.53,-34.61 48.39,-44.67 8.2,-6.96 19.31,-9.21 32.4,-9.13 l 1.01,-15.3 c 0.41,-6.21 3.45,-11.94 8.34,-15.72 4.76,-3.68 10.85,-5.15 16.7,-4.03 l 140.57,26.88 m 157.5,136.66 c -4.93,-7.33 -11.37,-13.61 -26.69,-20.39 -67.03,-26.72 -110.39,-16.59 -123.62,5.31 -8.41,13.91 -3.71,31.56 11.97,44.97 l -0.68,0.79 c 3.71,0.34 7.51,1.05 11.38,2.17 17.4,5.01 32.65,9.51 46.11,13.48 29.61,8.73 49.18,14.5 59.42,16.28 7.46,1.28 14.81,-1.06 19.66,-6.28 3.64,-3.93 5.42,-8.74 5.44,-14.73 0,-4.65 0.47,-9.08 0.93,-13.37 1.12,-10.37 2.07,-19.34 -3.92,-28.23 z m -154.38,31.38 c -13.88,-16.41 -16.62,-36.3 -6.58,-52.89 13.61,-22.51 53,-39.04 120.62,-17.04 l 11.78,4.12 c 2.17,0.81 4.35,1.65 6.58,2.54 l 0.21,0.08 c 1,0.44 1.97,0.88 2.92,1.33 l 5.49,-17.05 c -23.17,-5.29 -93.68,-21.16 -160.8,-33.82 4.14,12.01 4.11,23.59 3.72,29.44 -0.33,5 -0.06,14.64 0.25,25.81 0.82,29.11 0.85,49.75 -1.02,63.57 5.09,-2.84 10.75,-4.96 16.83,-6.09 z m 157.29,96.08 c 4.22,-20.13 -5.88,-46.03 -27.61,-52.69 -11.05,-1.97 -30.74,-7.78 -60.35,-16.51 -13.44,-3.97 -28.67,-8.46 -46.04,-13.46 -24.22,-6.99 -45.28,6.35 -51.66,23.28 -1.41,3.72 -2.09,7.39 -2.09,10.96 0,12.65 8.64,23.94 24.63,31.47 34.4,14.38 95.36,37.56 126.65,41.42 27.58,3.41 34.69,-15.98 36.47,-24.47 z m -18.48,80.4 c 4.36,-17.56 0.02,-37.92 -16.61,-43.29 -0.94,-0.08 -1.91,-0.18 -2.9,-0.3 -39.7,-4.88 -124.13,-39.17 -148.74,-50.44 -1.74,-0.8 -3.56,-1.18 -5.39,-1.18 -4.4,0 -8.89,2.26 -12.7,6.57 -9.62,10.85 -12.6,32.81 2.47,57.37 15.39,25.13 60.74,44.58 142.7,61.24 23.69,4.81 36.99,-13.14 41.17,-29.97 z m -23.54,83.21 c 7.42,-15.56 3.72,-32.19 0.6,-41.26 -3.28,0.83 -6.78,1.26 -10.46,1.26 -3.27,0 -6.68,-0.33 -10.25,-1.06 -28.51,-5.78 -52.67,-11.9 -72.88,-18.52 -20.22,-6.63 -36.49,-13.75 -49.22,-21.55 -7.45,-3.25 -17.97,0.42 -23.97,8.37 -3.36,4.45 -7.66,13.53 1.23,24.3 19.01,23.03 42.54,43.69 120.13,43.69 h 2.56 l 0.07,12.43 h -2.64 c -14.1,0 -26.52,-0.66 -37.57,-1.87 l -10.52,32.61 c 12.91,-0.54 28.12,-1.38 41.23,-4.59 26.74,-6.56 44.13,-17.94 51.69,-33.81 z m -97.35,3.67 c -3.74,-0.66 -7.31,-1.39 -10.69,-2.2 l -12.01,-3.37 c -27.51,-9.01 -41.88,-23.35 -54.49,-38.63 -10.16,-12.32 -10.76,-27.54 -1.56,-39.73 4.63,-6.13 11,-10.52 17.79,-12.76 -5.22,-4.74 -9.41,-9.72 -12.63,-14.95 -2.57,-4.19 -4.68,-8.29 -6.39,-12.28 -10.47,-2.24 -53.15,-11.74 -98.62,-26.92 l -9.09,137.82 c 0.33,0.09 0.66,0.17 1.01,0.27 26.27,7.04 94.97,25.44 178.08,39.42 z m -13.22,40.98 c -81,-13.74 -148.01,-31.52 -175.47,-38.87 l -1.19,18 c -0.22,3.27 1.91,6.17 4.94,6.75 l 160.72,30.73 c 3.03,0.58 6.07,-1.33 7.08,-4.44 z M 966.96,1349.82 c -0.09,-0.03 -0.19,-0.06 -0.28,-0.1 -6.68,-1.66 -11.3,-7.97 -10.84,-15 l 7.65,-115.97 c -5.02,0.05 -10.17,-0.37 -15.32,-1.45 v -13.13 c 0,0 8.02,0.84 18.46,0.28 2.97,-0.16 6.14,-0.43 9.37,-0.87 10.32,-1.4 21.32,-4.47 28.84,-10.9 -0.04,-0.28 -0.05,-0.43 0,-0.4 -4.27,-15.07 -5.73,-29.26 -4,-41.12 0.36,-2.52 0.87,-4.92 1.53,-7.21 l 11.95,3.42 c -6.02,21.06 3.58,56.31 23.9,87.72 19.71,30.44 61.46,29.82 71.31,24.04 0.51,-0.5 3.7,-4.5 4.69,-26.73 0.67,-14.81 0.16,-32.76 -0.23,-47.19 -0.34,-11.95 -0.61,-21.39 -0.24,-26.99 0.4,-5.86 0.68,-26.06 -11.94,-39.75 -8.22,-8.9 -20.54,-13.51 -36.63,-13.72 -18.53,-0.24 -37.25,-3.07 -53.77,-5.57 -27.79,-4.22 -51.79,-7.85 -63.29,1.9 -9.77,8.3 -21.86,19.31 -37.96,34.68 -6.32,6.04 -13.25,12.73 -20.92,20.22 -15.65,15.29 -34.31,33.78 -56.9,56.37 -19.59,19.59 -23.04,59.07 -23.45,79.28 -0.04,1.65 -0.05,3.21 -0.05,4.59 0,0 -11.23,-35.32 -5.57,-55.1 H 576.29 l 8.8,50.8 3.99,-1.16 -21.09,80.31 -1.68,1.4 1.43,33.94 28.01,47.66 -2.51,53.25 19.53,15.98 c 26.59,-4.27 115.28,-18.74 209.59,-36.72 -0.73,-0.8 -1.49,-1.6 -2.14,-2.47 -22.57,-30.78 -2.58,-58.01 -2.58,-58.01 -4.29,17.61 0.03,35.4 12.17,50.09 18.66,22.58 53.52,35.79 99.92,38.32 5.26,0.29 10.68,0.42 16.23,0.43 3.32,0.01 6.69,-0.04 10.12,-0.13 l 0.1,-1.64 z m 108.19,15.62 c -3.46,-19.06 2.22,-34.46 10.24,-43.52 5.76,-6.5 12.89,-10.16 20.15,-10.7 -7.53,-12.4 -7.31,-25.98 -3.33,-36.55 0.08,-0.24 0.19,-0.47 0.29,-0.7 -21.35,3.12 -56.15,-3.44 -74.72,-32.13 -7.23,-11.17 -13.15,-22.71 -17.64,-34.05 -0.24,-0.09 -0.52,-0.44 -0.82,-0.98 -6.11,3.06 -17.39,7.98 -30.82,10.44 l -7.15,108.29 -0.64,9.85 c 0.99,0.23 1.93,0.56 2.83,0.98 1.85,0.66 3.69,1.3 5.54,1.94 39.54,13.66 78.14,23.06 96.07,27.13 z m -79.42,-303.41 c -2.28,-0.44 -3.99,0.56 -4.8,1.19 -1.52,1.17 -2.47,2.97 -2.6,4.93 l -1,15.27 8.27,0.91 c 5.7,0.73 11.6,1.62 17.67,2.55 16.91,2.56 34.38,5.21 52.07,5.43 19.64,0.26 34.98,6.22 45.6,17.72 0.83,0.9 1.6,1.82 2.34,2.74 72.01,13.24 151.4,31.15 174.55,36.45 l 7.23,-22.41 c 0.6,-1.88 0.39,-3.9 -0.59,-5.55 -0.53,-0.89 -1.75,-2.44 -4.03,-2.88 z" />
          </g>
          <g
             id="g1678"
             style="display:inline">
            <g
               id="g1680" />
            <g
               id="g1692">
              <g
                 id="Clip-Path: g1690"
                 clip-path="url(#cp2)">
                <g
                   id="g1690"
                   style="opacity:0.2">
                  <g
                     id="g1688">
                    <path
                       id="path1686"
                       class="shp1"
                       d="m 1033.56,1523.51 -2.21,19.77 -33.44,-6.4 2.4,-21.51 c 9.71,2.45 20.87,5.22 33.25,8.14 z" />
                  </g>
                </g>
              </g>
            </g>
          </g>
          <g
             id="g1694"
             style="display:inline">
            <g
               id="g1696" />
            <g
               id="g1708">
              <g
                 id="Clip-Path: g1706"
                 clip-path="url(#cp3)">
                <g
                   id="g1706"
                   style="opacity:0.2">
                  <g
                     id="g1704">
                    <path
                       id="path1702"
                       class="shp1"
                       d="m 1050.22,1374.77 -14.96,133.86 c -12.45,-2.95 -23.64,-5.71 -33.29,-8.17 l 15.06,-134.64 c 12.23,3.5 23.54,6.52 33.19,8.95 z" />
                  </g>
                </g>
              </g>
            </g>
          </g>
          <g
             id="g1710"
             style="display:inline">
            <g
               id="g1712" />
            <g
               id="g1724">
              <g
                 id="Clip-Path: g1722"
                 clip-path="url(#cp4)">
                <g
                   id="g1722"
                   style="opacity:0.2">
                  <g
                     id="g1720">
                    <path
                       id="path1718"
                       class="shp1"
                       d="m 1062.06,1269.08 -10.14,90.78 c -9.72,-2.49 -21.03,-5.5 -33.2,-9.01 l 11.77,-105.16 c 8.55,11.44 19.86,18.91 31.57,23.39 z" />
                  </g>
                </g>
              </g>
            </g>
          </g>
          <g
             id="g1726"
             style="display:inline">
            <g
               id="g1728" />
            <g
               id="g1740">
              <g
                 id="Clip-Path: g1738"
                 clip-path="url(#cp5)">
                <g
                   id="g1738"
                   style="opacity:0.2">
                  <g
                     id="g1736">
                    <path
                       id="path1734"
                       class="shp1"
                       d="m 1083.36,1078.78 -1.72,15.28 c -5.04,-1.08 -10.48,-1.66 -16.29,-1.75 -5.9,-0.07 -11.77,-0.4 -17.58,-0.96 l 2.12,-18.96 z" />
                  </g>
                </g>
              </g>
            </g>
          </g>
          <g
             id="g1136"
             style="display:inline">
            <path
               id="path1672"
               class="shp2"
               d="m 1312.96,973.02 c -24.98,4.38 -43.43,54.26 -43.43,54.26 67.89,-25.62 68.42,-58.64 43.43,-54.26 z" />
            <path
               id="path1742"
               fill-rule="evenodd"
               class="shp2"
               d="m 1259.53,1043.38 c 37.25,-17.04 61.28,-15.64 69.66,7.59 6.16,23.49 -9.7,44.03 -47.82,51.46 l -143.61,-28.03 c 22.08,-6.47 27.52,-18.86 49.53,-38.85 11.02,-10 28.83,-17.66 44.02,-18.01 15.18,-0.35 27.73,6.61 28.22,25.84 z m -44.69,-15.35 c -1.9,-0.05 -4.51,0.72 -7.11,2.2 -4.15,2.36 -7.35,5.72 -6.06,7.77 1.3,2.05 7.27,0.2 10.07,-1.55 2.8,-1.75 6.86,-5.62 5.6,-7.39 -0.47,-0.66 -1.36,-1 -2.5,-1.03 z m 97.93,38.78 c -4.26,0 -10.35,2.31 -13.72,4.46 -4.89,3.12 -12.56,8.97 -9.83,13.18 2.72,4.22 12.94,0.07 17.91,-2.88 4.98,-2.94 12.29,-9.29 9.88,-13.09 -0.75,-1.19 -2.31,-1.67 -4.24,-1.67 z" />
          </g>
        </g>
      </g>
    </g>
    <g
       id="g2542">
      <g
         id="Clip-Path: g2540"
         clip-path="url(#cp6)"
         style="display:inline">
        <g
           id="g2540"
           style="display:inline">
          <g
             id="g3401"
             style="display:inline">
            <path
               id="path2388"
               class="shp0"
               d="m 1556.1,1311.23 c 7.26,0.52 14.39,4.21 20.14,10.7 8.02,9.03 13.71,24.43 10.23,43.52 5.78,-1.32 13.77,-3.2 23.24,-5.59 9.72,-2.49 21.03,-5.51 33.2,-9.01 12.57,-3.66 26.04,-7.84 39.62,-12.54 1.88,-0.65 3.72,-1.29 5.57,-1.94 0.89,-0.43 1.84,-0.77 2.82,-0.98 l -0.64,-9.87 -7.16,-108.26 c -13.44,-2.46 -24.69,-7.38 -30.8,-10.45 -0.31,0.55 -0.59,0.89 -0.83,0.98 -4.49,11.34 -10.42,22.87 -17.65,34.06 -0.86,1.32 -1.75,2.61 -2.7,3.84 -8.55,11.44 -19.86,18.91 -31.57,23.4 -14.33,5.5 -29.23,6.51 -40.45,4.88 0.09,0.25 0.21,0.46 0.3,0.71 3.97,10.54 4.18,24.13 -3.32,36.55" />
            <path
               id="path2392"
               class="shp0"
               d="m 1514.7,1546.69 3.93,12.14 c 1.02,3.14 4.06,5.04 7.07,4.46 l 104.58,-20.01 33.44,-6.4 22.72,-4.33 c 3.01,-0.56 5.13,-3.47 4.92,-6.73 l -1.17,-18.02 c -7.13,1.91 -16.88,4.52 -28.87,7.57 -9.71,2.45 -20.87,5.22 -33.26,8.14 -31.29,7.44 -70.36,15.89 -113.36,23.18" />
            <path
               id="path2396"
               class="shp0"
               d="m 1501.48,1505.71 8.61,26.65 c 44.26,-7.44 84.44,-16.13 116.28,-23.73 12.45,-2.95 23.64,-5.71 33.29,-8.17 12.02,-3.08 21.71,-5.66 28.5,-7.5 0.37,-0.1 0.68,-0.19 1.01,-0.28 l -9.06,-137.83 c -12.24,4.08 -24.26,7.74 -35.51,10.97 -12.23,3.5 -23.54,6.52 -33.2,8.95 -14.54,3.65 -25.36,6.02 -29.94,7 -1.72,4 -3.81,8.09 -6.39,12.3 -3.2,5.23 -7.41,10.2 -12.63,14.94 6.79,2.24 13.15,6.64 17.79,12.76 9.2,12.2 8.61,27.42 -1.56,39.74 -12.6,15.28 -26.96,29.6 -54.47,38.61 l -12.02,3.38 c -3.38,0.8 -6.95,1.54 -10.7,2.21 z" />
            <path
               id="path2400"
               class="shp0"
               d="m 1519.41,1242.34 c 6.08,1.13 11.74,3.25 16.83,6.09 -1.87,-13.82 -1.84,-34.46 -1.02,-63.57 0.31,-11.17 0.58,-20.81 0.25,-25.81 -0.39,-5.85 -0.42,-17.43 3.72,-29.44 -67.13,12.66 -137.64,28.53 -160.81,33.82 l 5.5,17.05 c 0.95,-0.45 1.92,-0.89 2.92,-1.33 l 0.21,-0.08 c 2.22,-0.89 4.41,-1.73 6.58,-2.54 l 11.78,-4.12 c 67.62,-22 107.01,-5.47 120.62,17.04 10.04,16.59 7.3,36.48 -6.58,52.89" />
          </g>
          <g
             id="g1076">
            <path
               id="path2408"
               class="shp0"
               d="m 1705.44,1513.17 0.11,1.64 c 3.42,0.09 6.8,0.14 10.12,0.13 5.55,-0.01 10.97,-0.14 16.23,-0.43 46.4,-2.53 81.26,-15.74 99.92,-38.32 12.14,-14.69 16.46,-32.48 12.17,-50.09 0,0 19.99,27.23 -2.58,58.01 -0.65,0.87 -1.41,1.67 -2.14,2.47 94.31,17.98 183,32.45 209.59,36.72 l 19.53,-15.98 -2.52,-53.25 28.01,-47.66 1.44,-33.94 -1.68,-1.4 -21.09,-80.31 3.98,1.16 8.81,-50.8 h -226.98 c 5.66,19.78 -5.57,55.1 -5.57,55.1 0,-1.38 -0.02,-2.94 -0.05,-4.59 -0.41,-20.21 -3.86,-59.69 -23.45,-79.28 -22.59,-22.59 -41.26,-41.08 -56.9,-56.37 -7.68,-7.49 -14.6,-14.18 -20.92,-20.22 -16.1,-15.36 -28.19,-26.38 -37.96,-34.68 -11.5,-9.75 -35.5,-6.12 -63.29,-1.9 -16.52,2.5 -35.24,5.33 -53.77,5.57 -16.09,0.21 -28.41,4.82 -36.63,13.72 -12.62,13.69 -12.34,33.89 -11.94,39.75 0.37,5.6 0.1,15.04 -0.24,26.99 -0.39,14.43 -0.9,32.38 -0.23,47.19 0.99,22.23 4.18,26.23 4.69,26.73 9.85,5.78 51.6,6.4 71.3,-24.04 20.33,-31.41 29.93,-66.66 23.91,-87.72 l 11.95,-3.42 c 0.66,2.29 1.17,4.69 1.53,7.21 1.73,11.86 0.26,26.05 -4,41.12 0.05,-0.03 0.04,0.12 0,0.4 7.52,6.43 18.51,9.5 28.83,10.9 3.24,0.44 6.4,0.71 9.38,0.87 10.43,0.56 18.46,-0.28 18.46,-0.28 v 13.13 c -5.15,1.08 -10.3,1.5 -15.32,1.45 l 7.64,115.97 c 0.47,7.03 -4.15,13.34 -10.83,15 -0.1,0.04 -0.19,0.07 -0.28,0.1 z" />
            <path
               id="path2412"
               class="shp0"
               d="m 1404.13,1502.03 c 7.57,15.87 24.96,27.25 51.7,33.81 13.11,3.21 28.32,4.05 41.23,4.59 l -10.52,-32.61 c -11.05,1.21 -23.47,1.87 -37.57,1.87 h -2.64 l 0.07,-12.43 h 2.56 c 77.59,0 101.12,-20.66 120.13,-43.69 8.89,-10.77 4.59,-19.85 1.23,-24.3 -6,-7.95 -16.52,-11.62 -23.97,-8.37 -12.74,7.8 -29,14.92 -49.22,21.55 -20.21,6.62 -44.38,12.74 -72.88,18.52 -3.57,0.73 -6.98,1.06 -10.25,1.06 -3.68,0 -7.18,-0.43 -10.46,-1.25 -3.12,9.06 -6.82,25.69 0.59,41.25" />
            <path
               id="path2416"
               class="shp0"
               d="m 1380.6,1418.82 c 4.18,16.83 17.48,34.78 41.17,29.97 81.96,-16.66 127.3,-36.11 142.7,-61.24 15.07,-24.56 12.09,-46.52 2.47,-57.37 -3.81,-4.31 -8.3,-6.57 -12.7,-6.57 -1.83,0 -3.65,0.38 -5.39,1.18 -24.61,11.27 -109.04,45.56 -148.75,50.44 -0.98,0.12 -1.95,0.22 -2.89,0.29 -16.63,5.38 -20.97,25.74 -16.61,43.3" />
            <path
               id="path2420"
               class="shp0"
               d="m 1362.12,1338.42 c 1.78,8.48 8.89,27.88 36.47,24.47 31.29,-3.86 92.25,-27.04 126.65,-41.42 15.99,-7.53 24.63,-18.82 24.63,-31.47 0,-3.57 -0.68,-7.24 -2.09,-10.96 -6.38,-16.92 -27.44,-30.27 -51.67,-23.28 -17.36,5 -32.6,9.49 -46.03,13.46 -29.61,8.73 -49.3,14.54 -60.35,16.51 -21.73,6.66 -31.83,32.55 -27.61,52.69" />
            <path
               id="path2424"
               class="shp0"
               d="m 1365.03,1210.96 c -6,8.89 -5.04,17.86 -3.92,28.23 0.46,4.29 0.93,8.72 0.93,13.37 0.02,5.98 1.79,10.8 5.44,14.73 4.85,5.22 12.2,7.56 19.66,6.28 10.24,-1.78 29.81,-7.55 59.42,-16.28 13.46,-3.97 28.71,-8.47 46.11,-13.48 3.87,-1.12 7.67,-1.83 11.38,-2.17 l -0.68,-0.79 c 15.68,-13.41 20.38,-31.06 11.97,-44.97 -13.23,-21.9 -56.59,-32.03 -123.62,-5.31 -15.32,6.78 -21.77,13.06 -26.69,20.39 z" />
          </g>
          <g
             id="g1102">
            <path
               id="path2428"
               class="shp2"
               d="m 2168.54,1344.19 79.16,-12.81 -32.59,31.9 z" />
            <path
               id="path2432"
               class="shp2"
               d="m 2086.46,1722.56 -11.73,-48.95 56.67,56.74 z" />
            <path
               id="path2436"
               class="shp2"
               d="m 2232.52,1117.46 -3.39,45.48 -47.57,16.44 z" />
            <path
               id="path2440"
               class="shp2"
               d="m 1990.24,932.84 30.67,33.76 -20.82,45.82 z" />
            <path
               id="path2444"
               class="shp2"
               d="m 1776.91,1008.67 11.77,48.94 -56.71,-56.7 z" />
            <path
               id="path2448"
               class="shp2"
               d="m 2111.07,978.51 10.32,20.34 -16.1,19.34 z" />
            <path
               id="path2452"
               class="shp2"
               d="m 2269.66,1239.54 -9.19,20.87 -25.16,-0.2 z" />
            <path
               id="path2456"
               class="shp2"
               d="m 2219.97,1483.49 -21.62,7.25 -16.79,-18.75 z" />
            <path
               id="path2460"
               class="shp2"
               d="m 2166.12,1623.97 -16.79,-18.75 38.42,11.5 z" />
            <path
               id="path2464"
               class="shp2"
               d="m 1976,1771.42 -14.58,-17.53 11.4,-22.44 z" />
            <path
               id="path2468"
               class="shp2"
               d="m 1767.14,1756.97 -2.32,-45.55 45.15,-22.25 z" />
            <path
               id="path2472"
               class="shp2"
               d="m 1731.06,1602.54 -38.28,11.93 13.88,-18.09 z" />
          </g>
          <g
             id="g2478">
            <path
               id="path2476"
               fill-rule="evenodd"
               class="shp2"
               d="m 1522.53,1074.3 140.57,-26.88 c 5.85,-1.12 11.94,0.35 16.7,4.03 4.89,3.78 7.93,9.51 8.34,15.72 l 1.01,15.3 c 13.09,-0.08 24.2,2.17 32.4,9.13 11.86,10.06 26.99,23.99 48.38,44.67 l 7.87,0.21 -3.96,-17.99 -24.38,-3.7 -10.54,-19.57 -0.66,-21.69 9.22,19.57 9.89,11.11 37.56,2.12 15.82,-24.34 v -15.34 l 10.54,-14.81 -21.09,-10.58 -0.66,-16.93 -7.9,-12.17 17.13,9.53 -1.32,11.1 30.98,21.16 -19.78,20.64 10.55,23.27 h 28.99 l 13.84,-25.92 -5.93,-12.17 5.93,-12.69 -6.59,-15.34 15.16,-24.87 -3.29,22.75 11.2,12.7 -7.91,10.05 1.32,21.69 6.59,11.11 36.9,-11.11 -12.52,-23.81 8.57,-15.87 -5.93,-27.51 19.11,22.75 -5.27,7.41 v 30.15 l 13.18,16.4 25.7,-8.99 -6.59,-26.98 22.4,20.63 -22.4,17.99 22.4,14.28 30.32,-27.51 21.08,-8.47 v -31.74 l 14.5,-12.16 -15.81,-37.56 33.61,43.91 -21.09,11.63 5.93,25.4 -30.97,23.8 41.51,41.79 45.47,-8.99 -8.56,-35.97 -12.52,-9.52 55.35,-22.75 -34.27,19.04 15.82,35.45 -5.93,24.33 -40.86,8.99 12.52,33.86 47.45,2.65 20.43,-14.29 8.56,-36.5 27.68,-10.58 -17.79,17.46 -1.98,34.91 -28.33,15.34 -39.54,6.35 -5.28,25.92 13.84,14.81 44.16,-4.76 34.92,12.7 h -45.47 l -47.45,5.29 -7.25,41.79 46.13,19.05 67.88,-23.28 -65.24,47.08 -47.45,-13.75 12.52,47.69 44.16,36.42 28.33,-15.87 21.09,10.58 -25.04,-0.53 -15.16,34.39 25.04,27.5 -40.85,-22.21 3.29,-19.58 -38.22,-18.51 -1.32,31.21 15.82,26.45 -26.36,-21.69 -16.48,28.04 1.98,41.79 45.47,15.87 42.18,-6.88 -39.54,13.76 14.49,41.26 -30.97,-17.46 -0.66,-26.45 -30.97,-4.76 -34.27,28.04 25.7,34.91 -7.25,19.05 52.72,29.62 2.64,40.74 -15.82,-37.04 -65.24,-20.1 11.86,-34.38 -11.86,-12.17 -45.47,29.62 3.3,43.38 11.86,24.87 43.49,5.82 -22.4,3.17 12.52,21.16 -29,26.45 15.16,-26.98 -17.79,-22.22 -17.8,6.88 -0.65,-20.63 -21.09,-43.91 -44.81,6.88 -5.94,32.8 21.09,52.9 -17.79,14.28 5.27,-20.1 -27.68,-61.9 -0.66,-23.27 -31.63,6.35 -1.97,19.57 12.52,20.1 -25.7,27.51 13.83,-31.21 -13.83,-19.05 2.63,-19.57 -20.43,-9.52 -26.36,21.69 3.3,24.33 -32.29,19.57 19.11,-21.68 -6.59,-28.04 21.74,-15.34 c -40.77,-8.11 -75.71,-34.18 -95.1,-70.95 l -5.03,-9.52 c -1.2,0.02 -2.39,0.03 -3.61,0.03 -2.86,0 -5.76,-0.05 -8.69,-0.13 -0.44,9.73 -7.39,18.07 -17,19.91 l -160.71,30.74 c -1.3,0.24 -2.6,0.36 -3.88,0.36 -8.99,0 -17.26,-5.89 -20.16,-14.86 l -3.34,-10.37 -0.75,-0.02 c -13.46,-0.54 -31.89,-1.27 -47.51,-5.1 -30.54,-7.49 -50.71,-21.14 -59.97,-40.54 -9.45,-19.85 -4.91,-40.16 -0.88,-51.39 -12.03,-7.29 -20.05,-20.3 -23.5,-34.16 -4.23,-17.03 -1.74,-36.19 9.3,-48.24 -16.26,-5.16 -25,-18.87 -27.88,-32.62 -4.1,-19.63 2.33,-43.66 18.88,-57.7 -3.9,-1.78 -7.47,-4.3 -10.45,-7.51 -5.8,-6.26 -8.74,-14.04 -8.76,-23.17 0,-4.01 -0.43,-7.93 -0.87,-12.07 -1.2,-11.18 -2.55,-23.85 5.97,-36.5 4.31,-6.41 9.34,-11.55 15.94,-16.1 l -18.24,-56.55 c -1.91,-5.93 -1.2,-12.38 1.95,-17.69 3.07,-5.18 8.19,-8.79 14.04,-9.91 l 10.71,-2.05 m -18,137.47 c 0.46,4.29 0.93,8.72 0.93,13.37 0.02,5.99 1.8,10.8 5.44,14.73 4.85,5.22 12.2,7.56 19.66,6.28 10.24,-1.78 29.81,-7.55 59.42,-16.28 13.46,-3.97 28.71,-8.47 46.11,-13.48 3.87,-1.12 7.67,-1.83 11.38,-2.17 l -0.68,-0.79 c 15.68,-13.41 20.38,-31.06 11.97,-44.97 -13.23,-21.9 -56.59,-32.03 -123.62,-5.31 -15.32,6.78 -21.76,13.06 -26.69,20.39 -6,8.89 -5.04,17.86 -3.92,28.23 z m 175.13,9.24 c -1.87,-13.82 -1.84,-34.46 -1.02,-63.57 0.31,-11.17 0.58,-20.81 0.25,-25.81 -0.39,-5.85 -0.42,-17.43 3.72,-29.44 -67.12,12.66 -137.64,28.53 -160.8,33.82 l 5.49,17.05 c 0.95,-0.45 1.92,-0.89 2.92,-1.33 l 0.21,-0.08 c 2.22,-0.89 4.41,-1.73 6.58,-2.54 l 11.78,-4.12 c 67.62,-22 107.01,-5.47 120.62,17.04 10.04,16.59 7.3,36.48 -6.58,52.89 6.08,1.13 11.74,3.25 16.83,6.09 z m -137.65,114.46 c 31.29,-3.86 92.25,-27.04 126.65,-41.42 15.99,-7.53 24.63,-18.82 24.63,-31.47 0,-3.57 -0.68,-7.24 -2.09,-10.96 -6.38,-16.93 -27.44,-30.27 -51.67,-23.28 -17.36,5 -32.6,9.49 -46.03,13.46 -29.61,8.73 -49.3,14.54 -60.35,16.51 -21.73,6.66 -31.83,32.56 -27.61,52.69 1.78,8.49 8.89,27.88 36.47,24.47 z m 23.18,85.9 c 81.96,-16.66 127.3,-36.11 142.7,-61.24 15.07,-24.56 12.09,-46.52 2.47,-57.37 -3.81,-4.31 -8.3,-6.57 -12.7,-6.57 -1.83,0 -3.65,0.38 -5.39,1.18 -24.61,11.27 -109.04,45.56 -148.74,50.44 -0.99,0.12 -1.96,0.22 -2.9,0.3 -16.63,5.37 -20.97,25.73 -16.61,43.29 4.18,16.83 17.48,34.78 41.17,29.97 z m 34.06,87.05 c 13.11,3.21 28.32,4.05 41.23,4.59 l -10.52,-32.61 c -11.05,1.21 -23.47,1.87 -37.57,1.87 h -2.64 l 0.07,-12.43 h 2.56 c 77.59,0 101.12,-20.66 120.13,-43.69 8.89,-10.77 4.59,-19.85 1.23,-24.3 -6,-7.95 -16.52,-11.62 -23.97,-8.37 -12.74,7.8 -29,14.92 -49.22,21.55 -20.21,6.62 -44.38,12.74 -72.88,18.52 -3.57,0.73 -6.98,1.06 -10.25,1.06 -3.68,0 -7.18,-0.43 -10.46,-1.26 -3.12,9.07 -6.82,25.7 0.59,41.26 7.57,15.87 24.96,27.25 51.7,33.81 z m 54.26,-3.47 c 83.11,-13.98 151.8,-32.38 178.08,-39.42 0.35,-0.1 0.68,-0.18 1.01,-0.27 l -9.09,-137.82 c -45.47,15.18 -88.15,24.68 -98.62,26.92 -1.71,3.99 -3.82,8.09 -6.39,12.28 -3.22,5.23 -7.41,10.21 -12.63,14.95 6.79,2.24 13.16,6.63 17.79,12.76 9.2,12.19 8.6,27.41 -1.56,39.73 -12.61,15.28 -26.98,29.62 -54.49,38.63 l -12.01,3.37 c -3.38,0.81 -6.95,1.54 -10.69,2.2 z m 8.54,26.48 c 1,3.11 4.05,5.02 7.08,4.44 l 160.72,-30.73 c 3.03,-0.58 5.16,-3.48 4.94,-6.75 l -1.19,-18 c -27.46,7.35 -94.47,25.13 -175.47,38.87 z m 186.82,-45.68 0.1,1.64 c 3.42,0.09 6.8,0.14 10.12,0.13 5.55,-0.01 10.97,-0.14 16.23,-0.43 46.39,-2.53 81.26,-15.74 99.92,-38.32 12.14,-14.69 16.46,-32.48 12.17,-50.09 0,0 19.99,27.23 -2.58,58.01 -0.65,0.87 -1.41,1.67 -2.14,2.47 94.31,17.98 183,32.45 209.59,36.72 l 19.53,-15.98 -2.52,-53.25 28.02,-47.66 1.43,-33.94 -1.68,-1.4 -21.09,-80.31 3.98,1.16 8.81,-50.8 h -226.98 c 5.66,19.78 -5.57,55.1 -5.57,55.1 0,-1.38 -0.02,-2.94 -0.05,-4.59 -0.41,-20.21 -3.86,-59.69 -23.45,-79.28 -22.59,-22.59 -41.26,-41.08 -56.9,-56.37 -7.68,-7.49 -14.6,-14.18 -20.92,-20.22 -16.1,-15.37 -28.19,-26.38 -37.96,-34.68 -11.5,-9.75 -35.5,-6.12 -63.29,-1.9 -16.52,2.5 -35.24,5.33 -53.77,5.57 -16.09,0.21 -28.41,4.82 -36.63,13.72 -12.62,13.69 -12.34,33.89 -11.94,39.75 0.37,5.6 0.1,15.04 -0.24,26.99 -0.39,14.43 -0.9,32.38 -0.23,47.19 0.99,22.23 4.18,26.23 4.69,26.73 9.85,5.78 51.6,6.4 71.31,-24.04 20.32,-31.41 29.92,-66.66 23.9,-87.72 l 11.95,-3.42 c 0.66,2.29 1.17,4.69 1.53,7.21 1.73,11.86 0.26,26.05 -4,41.12 0.05,-0.03 0.04,0.12 0,0.4 7.52,6.43 18.52,9.5 28.84,10.9 3.23,0.44 6.4,0.71 9.37,0.87 10.44,0.56 18.46,-0.28 18.46,-0.28 v 13.13 c -5.15,1.08 -10.3,1.5 -15.32,1.45 l 7.65,115.97 c 0.46,7.03 -4.16,13.34 -10.84,15 -0.09,0.04 -0.19,0.07 -0.28,0.1 z m -22.9,-174.86 c 1.85,-0.64 3.69,-1.28 5.54,-1.94 0.9,-0.42 1.84,-0.75 2.83,-0.98 l -0.65,-9.85 -7.14,-108.29 c -13.43,-2.46 -24.71,-7.38 -30.82,-10.44 -0.3,0.54 -0.58,0.89 -0.82,0.98 -4.49,11.34 -10.41,22.88 -17.64,34.05 -18.57,28.69 -53.37,35.25 -74.72,32.13 0.1,0.23 0.21,0.46 0.29,0.7 3.98,10.57 4.2,24.15 -3.33,36.55 7.26,0.54 14.39,4.2 20.15,10.7 8.02,9.06 13.7,24.46 10.24,43.52 17.93,-4.07 56.53,-13.47 96.07,-27.13 z m -311.36,-219.93 c -2.28,0.44 -3.5,1.99 -4.03,2.88 -0.98,1.65 -1.19,3.67 -0.59,5.55 l 7.23,22.41 c 23.15,-5.3 102.54,-23.21 174.55,-36.45 0.74,-0.92 1.51,-1.84 2.34,-2.74 10.62,-11.5 25.96,-17.46 45.6,-17.72 17.69,-0.22 35.16,-2.87 52.06,-5.43 6.08,-0.93 11.98,-1.82 17.68,-2.55 l 8.27,-0.91 -1,-15.27 c -0.13,-1.96 -1.08,-3.76 -2.6,-4.93 -0.81,-0.63 -2.52,-1.63 -4.8,-1.19 z" />
          </g>
          <g
             id="g2512">
            <g
               id="g2502" />
            <g
               id="g2510">
              <g
                 id="Clip-Path: g2508"
                 clip-path="url(#cp7)">
                <g
                   id="g2508"
                   style="opacity:0.2">
                  <g
                     id="g2506">
                    <path
                       id="path2504"
                       class="shp1"
                       d="m 1611.4,1374.77 14.97,133.86 c 12.45,-2.95 23.64,-5.71 33.29,-8.17 l -15.06,-134.64 c -12.23,3.5 -23.54,6.52 -33.2,8.95 z" />
                  </g>
                </g>
              </g>
            </g>
          </g>
          <g
             id="g2524"
             style="display:inline">
            <g
               id="g2514" />
            <g
               id="g2522">
              <g
                 id="Clip-Path: g2520"
                 clip-path="url(#cp8)">
                <g
                   id="g2520"
                   style="opacity:0.2">
                  <g
                     id="g2518">
                    <path
                       id="path2516"
                       class="shp1"
                       d="m 1599.57,1269.08 10.14,90.78 c 9.72,-2.49 21.03,-5.5 33.2,-9.01 l -11.77,-105.16 c -8.55,11.44 -19.86,18.91 -31.57,23.39 z" />
                  </g>
                </g>
              </g>
            </g>
          </g>
          <g
             id="g2536"
             style="display:inline">
            <g
               id="g2526" />
            <g
               id="g2534">
              <g
                 id="Clip-Path: g2532"
                 clip-path="url(#cp9)">
                <g
                   id="g2532"
                   style="opacity:0.2">
                  <g
                     id="g2530">
                    <path
                       id="path2528"
                       class="shp1"
                       d="m 1578.27,1078.78 1.72,15.28 c 5.04,-1.08 10.48,-1.66 16.29,-1.75 5.9,-0.07 11.77,-0.4 17.58,-0.96 l -2.12,-18.96 z" />
                  </g>
                </g>
              </g>
            </g>
          </g>
          <g
             id="g2490"
             style="display:inline" />
          <g
             id="Clip-Path: g2496"
             clip-path="url(#cp10)"
             style="display:inline">
            <g
               id="g2496"
               style="opacity:0.2">
              <g
                 id="g2494">
                <path
                   id="path2492"
                   class="shp1"
                   d="m 1628.06,1523.51 2.22,19.77 33.44,-6.4 -2.4,-21.51 c -9.71,2.45 -20.87,5.22 -33.26,8.14 z" />
              </g>
            </g>
          </g>
          <g
             id="g1117"
             style="display:inline">
            <path
               id="path2486"
               class="shp2"
               d="m 1276.28,1124.41 c 19.74,-15.93 69.43,3.01 69.43,3.01 -63.97,34.26 -89.17,12.92 -69.43,-3.01 z"
               style="display:none" />
            <path
               id="path2482"
               class="shp2"
               d="m 1398.92,947.45 c 20.25,15.28 13.95,68.08 13.95,68.08 -48.77,-53.73 -34.2,-83.36 -13.95,-68.08 z" />
            <path
               id="path2538"
               fill-rule="evenodd"
               class="shp2"
               d="m 1432.97,1016.22 c 15.19,0.35 33.29,6.83 41.37,19.33 14.48,22.4 27.45,32.38 49.53,38.85 l -143.61,28.03 c -38.12,-7.43 -51.75,-40.99 -45.59,-64.47 8.38,-23.23 52.25,-30.75 67.43,5.42 12,-17.23 15.69,-27.51 30.87,-27.16 z m -3.47,19.1 c -1.27,1.76 2.8,5.64 5.6,7.39 2.79,1.75 16.01,8.22 17.31,6.17 1.3,-2.05 -9.15,-10.04 -13.31,-12.4 -2.6,-1.47 -5.21,-2.25 -7.11,-2.2 -1.14,0.04 -2.02,0.37 -2.49,1.04 z m -73.92,7.56 c -2.4,3.8 4.91,10.15 9.88,13.09 4.98,2.95 15.2,7.1 17.92,2.88 2.72,-4.21 -5.84,-6.71 -10.74,-9.84 -3.36,-2.14 -8.55,-7.8 -12.81,-7.8 -1.94,0 -3.5,0.48 -4.25,1.67 z" />
          </g>
        </g>
      </g>
    </g>
    <text
       id="PARTY "
       x="881.89624"
       y="864.10498"><tspan
         x="881.89624"
         y="864.10498"
         class="txt3"
         id="tspan1196">PARTY</tspan></text>
    <text
       id="PUNCH "
       x="890.37384"
       y="2078.9385"><tspan
         x="890.37384"
         y="2078.9385"
         class="txt3"
         id="tspan1199">PUNCH</tspan></text>
  </g>
</svg>
